<svg id="Capa_1" data-name="Capa 1" xmlns="http://www.w3.org/2000/svg" width="1330.78" height="726.12" viewBox="0 0 1330.78 726.12"><defs><style>.cls-1{fill:#ffdd0f;}.cls-2{fill:#f09300;}.cls-3{fill:#bd1522;}.cls-4{fill:#cf1e20;}.cls-5{fill:#fab234;}.cls-6{fill:#eb6e04;}.cls-7{fill:#1f8bb9;}.cls-8{fill:#2daae2;}.cls-9{isolation:isolate;}.cls-10{fill:#0e3a6c;}.cls-11{fill:#143d62;}.cls-12{fill:none;stroke:#143d62;stroke-miterlimit:10;stroke-width:5px;}</style></defs><title>logo_vertical</title><g id="Capa_2" data-name="Capa 2"><ellipse class="cls-1" cx="460.87" cy="136.39" rx="132.75" ry="136.39"/><polygon class="cls-2" points="511.79 74.56 726.38 60.01 702.73 387.34 548.16 387.34 511.79 74.56"/><polygon class="cls-3" points="453.6 389.16 431.78 147.3 593.62 158.21 593.62 396.43 453.6 389.16"/><polygon class="cls-4" points="522.7 152.75 593.62 156.39 593.62 396.43 551.8 396.43 522.7 152.75"/><polygon class="cls-5" points="666.36 132.75 857.31 107.29 840.94 380.07 666.36 389.16 666.36 132.75"/><polygon class="cls-6" points="666.36 132.75 719.1 125.48 700.92 387.34 666.36 387.34 666.36 132.75"/><path class="cls-7" d="M960.77,428.53c-20.91,4.6-308.06,64-640.71-62.1,0,0,197.23,27.48,378.19,18.4C717.36,397.25,790.06,434.91,960.77,428.53Z" transform="translate(-8.3)"/><path class="cls-8" d="M962,313.69V428.26l-1.22.27c-170.71,6.38-243.41-31.28-262.52-43.7C808.06,379.34,911.85,360.39,962,313.69Z" transform="translate(-8.3)"/><g class="cls-9"><g class="cls-9"><path class="cls-10" d="M88.62,588.87c0,.91,0,1.71-.08,2.39a10.37,10.37,0,0,1-.3,1.8,6.33,6.33,0,0,1-.56,1.37,7.57,7.57,0,0,1-1.2,1.45,25,25,0,0,1-3.59,2.61,42.86,42.86,0,0,1-6.8,3.42,57,57,0,0,1-9.32,2.82,53.74,53.74,0,0,1-11.51,1.16A50.54,50.54,0,0,1,35.8,602.3,39.33,39.33,0,0,1,21,591.69a48.45,48.45,0,0,1-9.41-17.32,87,87,0,0,1,.26-48.29,53.31,53.31,0,0,1,10-18.27,42.82,42.82,0,0,1,15.36-11.42A48.67,48.67,0,0,1,57,492.46a47.74,47.74,0,0,1,9.32.9,58.72,58.72,0,0,1,8.39,2.27,38,38,0,0,1,6.84,3.16,23.12,23.12,0,0,1,4.15,2.95,10.45,10.45,0,0,1,1.5,1.75,6.18,6.18,0,0,1,.55,1.42,13.33,13.33,0,0,1,.35,1.92,25.2,25.2,0,0,1,.12,2.65,20.07,20.07,0,0,1-.17,2.91,7.93,7.93,0,0,1-.51,2,3.16,3.16,0,0,1-.82,1.2,1.76,1.76,0,0,1-1.16.38,6.43,6.43,0,0,1-3.36-1.66,53,53,0,0,0-5.54-3.68A45,45,0,0,0,68.37,507a36.08,36.08,0,0,0-11.65-1.67,30.44,30.44,0,0,0-13.46,2.95,28.41,28.41,0,0,0-10.36,8.69,42.63,42.63,0,0,0-6.67,14,76.81,76.81,0,0,0-.08,37.47,38.42,38.42,0,0,0,6.53,13.51,27.33,27.33,0,0,0,10.45,8.22,33.93,33.93,0,0,0,14,2.78,36.86,36.86,0,0,0,11.56-1.63,44.76,44.76,0,0,0,8.43-3.63A67.18,67.18,0,0,0,82.86,584a6.83,6.83,0,0,1,3.53-1.62,2,2,0,0,1,1,.25,1.85,1.85,0,0,1,.69,1,8.65,8.65,0,0,1,.38,2A32.08,32.08,0,0,1,88.62,588.87Z" transform="translate(-8.3)"/><path class="cls-10" d="M191,599.3a10.85,10.85,0,0,1,.72,3,2.07,2.07,0,0,1-.64,1.75,4.1,4.1,0,0,1-2.27.77,39.53,39.53,0,0,1-4.23.17c-1.77,0-3.18,0-4.23-.13a9.34,9.34,0,0,1-2.4-.42,2.54,2.54,0,0,1-1.2-.82,6.56,6.56,0,0,1-.72-1.28l-9.5-26.94h-46L111.46,602a4.76,4.76,0,0,1-.68,1.33,3.41,3.41,0,0,1-1.24.94,7.82,7.82,0,0,1-2.31.55,34.36,34.36,0,0,1-3.9.17,32,32,0,0,1-4.06-.21,4.07,4.07,0,0,1-2.22-.81,2.17,2.17,0,0,1-.6-1.76,10.46,10.46,0,0,1,.73-3L134.3,496.39a4.46,4.46,0,0,1,.9-1.53,3.72,3.72,0,0,1,1.62-.95,13.19,13.19,0,0,1,2.74-.47c1.11-.08,2.52-.13,4.24-.13s3.33.05,4.53.13a14.23,14.23,0,0,1,2.91.47,3.83,3.83,0,0,1,1.71,1,4.58,4.58,0,0,1,.94,1.58Zm-47.65-90.76h-.09l-19.07,55.18H162.7Z" transform="translate(-8.3)"/><path class="cls-10" d="M283.32,602.3a2.64,2.64,0,0,1-.26,1.19,2,2,0,0,1-1.11.86,9.3,9.3,0,0,1-2.4.51,37.36,37.36,0,0,1-4.1.17,30.06,30.06,0,0,1-3.64-.17,8.1,8.1,0,0,1-2.27-.55,3.15,3.15,0,0,1-1.32-1.07,6.81,6.81,0,0,1-.82-1.71l-10.17-26.09q-1.8-4.46-3.73-8.17a26.49,26.49,0,0,0-4.57-6.42,18.78,18.78,0,0,0-6.25-4.19,22.35,22.35,0,0,0-8.64-1.5h-9.83V602.3a1.91,1.91,0,0,1-.39,1.19,2.54,2.54,0,0,1-1.2.82,11.53,11.53,0,0,1-2.22.51,30.11,30.11,0,0,1-7.1,0,12.79,12.79,0,0,1-2.27-.51,2.27,2.27,0,0,1-1.2-.82,2.16,2.16,0,0,1-.34-1.19V499.82c0-2.23.59-3.78,1.76-4.67a6,6,0,0,1,3.72-1.32h23.52c2.79,0,5.12.07,7,.21s3.52.3,5,.47A42.21,42.21,0,0,1,261.8,498a27,27,0,0,1,8.26,6.07,24.66,24.66,0,0,1,5,8.43A31.51,31.51,0,0,1,276.73,523a30.75,30.75,0,0,1-1.5,10,24.15,24.15,0,0,1-4.32,7.79,28.41,28.41,0,0,1-6.76,5.86,43.5,43.5,0,0,1-8.81,4.19,20.63,20.63,0,0,1,5,3,25,25,0,0,1,4.15,4.4,40.53,40.53,0,0,1,3.64,5.9q1.71,3.35,3.42,7.53l9.92,24.38c.8,2.05,1.31,3.49,1.54,4.32A7.84,7.84,0,0,1,283.32,602.3Zm-22.16-77.76a19.79,19.79,0,0,0-2.91-11q-2.91-4.5-9.75-6.46a27.7,27.7,0,0,0-4.83-.86q-2.7-.25-7.06-.25h-12.4v37.29h14.37a31.94,31.94,0,0,0,10-1.41,20,20,0,0,0,7.06-3.93,15.34,15.34,0,0,0,4.14-5.95A20.28,20.28,0,0,0,261.16,524.54Z" transform="translate(-8.3)"/><path class="cls-10" d="M319.33,602.3a2.16,2.16,0,0,1-.34,1.19,2.27,2.27,0,0,1-1.2.82,12.79,12.79,0,0,1-2.27.51A24.76,24.76,0,0,1,312,605a25,25,0,0,1-3.51-.21,12.72,12.72,0,0,1-2.31-.51,2.2,2.2,0,0,1-1.19-.82,2.08,2.08,0,0,1-.34-1.19V496.05a1.9,1.9,0,0,1,.38-1.19,2.52,2.52,0,0,1,1.28-.82,14,14,0,0,1,2.31-.51,23.24,23.24,0,0,1,3.38-.22,24.58,24.58,0,0,1,3.55.22,12.79,12.79,0,0,1,2.27.51,2.27,2.27,0,0,1,1.2.82,2.16,2.16,0,0,1,.34,1.19Z" transform="translate(-8.3)"/><path class="cls-10" d="M421.72,572.78a33.46,33.46,0,0,1-1.32,9.63,28.81,28.81,0,0,1-3.72,7.91,27.69,27.69,0,0,1-5.78,6.16,33.36,33.36,0,0,1-7.61,4.45,43.6,43.6,0,0,1-9.07,2.69,61,61,0,0,1-11.08.9H354.23a6,6,0,0,1-3.72-1.33q-1.75-1.32-1.76-4.66V499.82c0-2.23.59-3.78,1.76-4.67a6.09,6.09,0,0,1,3.72-1.32h25.15a58.5,58.5,0,0,1,16.25,1.88,28.71,28.71,0,0,1,10.57,5.48,22.65,22.65,0,0,1,6.37,8.81,31,31,0,0,1,2.14,11.8,30,30,0,0,1-.94,7.53A25.34,25.34,0,0,1,411,536a22.9,22.9,0,0,1-4.62,5.43,24.23,24.23,0,0,1-6.38,3.93,27,27,0,0,1,8.47,3.13,25.59,25.59,0,0,1,6.89,5.77,26.92,26.92,0,0,1,4.66,8.21A30.13,30.13,0,0,1,421.72,572.78Zm-22.15-49.52a22.48,22.48,0,0,0-1.11-7.28,13.52,13.52,0,0,0-3.5-5.51,15.75,15.75,0,0,0-6.23-3.47,35.4,35.4,0,0,0-10.16-1.2H363.38v35.85h16.73a23.76,23.76,0,0,0,9.22-1.5,16.63,16.63,0,0,0,5.8-4,15.52,15.52,0,0,0,3.37-5.9A23.11,23.11,0,0,0,399.57,523.26Zm6.67,50.38a22.48,22.48,0,0,0-1.58-8.73,16.6,16.6,0,0,0-4.61-6.33,20.44,20.44,0,0,0-7.6-3.89A42.07,42.07,0,0,0,381,553.37H363.38v39h21.35a29.34,29.34,0,0,0,8.79-1.19,19.68,19.68,0,0,0,6.61-3.55,16.33,16.33,0,0,0,4.49-5.86A19.21,19.21,0,0,0,406.24,573.64Z" transform="translate(-8.3)"/><path class="cls-10" d="M505.64,598.45a19.22,19.22,0,0,1-.17,2.69,6,6,0,0,1-.6,1.93,3,3,0,0,1-1,1.11,2.29,2.29,0,0,1-1.24.34H449.52a6,6,0,0,1-3.72-1.33q-1.76-1.32-1.75-4.66V499.82c0-2.23.58-3.78,1.75-4.67a6.09,6.09,0,0,1,3.72-1.32h52.53a2.19,2.19,0,0,1,2.13,1.45,8.6,8.6,0,0,1,.56,1.93,16.33,16.33,0,0,1,.21,2.86,15.26,15.26,0,0,1-.21,2.7,7.55,7.55,0,0,1-.56,1.88,2.39,2.39,0,0,1-.89,1.07,2.34,2.34,0,0,1-1.24.34H458.76v34.73h37.13a2.12,2.12,0,0,1,1.24.39,3.09,3.09,0,0,1,.94,1.07,5.47,5.47,0,0,1,.55,1.88,19.4,19.4,0,0,1,.17,2.82,16.91,16.91,0,0,1-.17,2.65,5.47,5.47,0,0,1-.55,1.8,2.41,2.41,0,0,1-.94,1,2.58,2.58,0,0,1-1.24.3H458.76v39.61h43.88a2.29,2.29,0,0,1,1.24.34,3,3,0,0,1,1,1.07,5.4,5.4,0,0,1,.6,1.88A20.76,20.76,0,0,1,505.64,598.45Z" transform="translate(-8.3)"/><path class="cls-10" d="M610.6,599.3a10.93,10.93,0,0,1,.73,3,2.11,2.11,0,0,1-.65,1.75,4.06,4.06,0,0,1-2.26.77,39.86,39.86,0,0,1-4.24.17c-1.77,0-3.18,0-4.23-.13a9.34,9.34,0,0,1-2.4-.42,2.46,2.46,0,0,1-1.19-.82,6.55,6.55,0,0,1-.73-1.28l-9.5-26.94h-46L531,602a4.51,4.51,0,0,1-.68,1.33,3.41,3.41,0,0,1-1.24.94,7.66,7.66,0,0,1-2.31.55,34.29,34.29,0,0,1-3.89.17,32.08,32.08,0,0,1-4.07-.21,4.07,4.07,0,0,1-2.22-.81,2.17,2.17,0,0,1-.6-1.76,10.46,10.46,0,0,1,.73-3l37.12-102.83a4.46,4.46,0,0,1,.9-1.53,3.71,3.71,0,0,1,1.63-.95,13,13,0,0,1,2.74-.47c1.11-.08,2.52-.13,4.23-.13s3.34.05,4.53.13a14.23,14.23,0,0,1,2.91.47,3.83,3.83,0,0,1,1.71,1,4.58,4.58,0,0,1,.94,1.58ZM563,508.54h-.08l-19.08,55.18h38.49Z" transform="translate(-8.3)"/><path class="cls-10" d="M712.74,598.45a6.74,6.74,0,0,1-.58,2.91,5.69,5.69,0,0,1-3.58,3.07,8,8,0,0,1-2.3.35h-4.87a15.52,15.52,0,0,1-4-.47,9.23,9.23,0,0,1-3.28-1.71,17.55,17.55,0,0,1-3.09-3.38,44.55,44.55,0,0,1-3.29-5.48l-33.77-63q-2.64-4.87-5.34-10.22t-5-10.39h-.17q.16,6.15.25,12.57t.09,12.75V602.3a2.08,2.08,0,0,1-.36,1.15,2.3,2.3,0,0,1-1.22.86,12.65,12.65,0,0,1-2.26.51,30.37,30.37,0,0,1-7.13,0,11.59,11.59,0,0,1-2.21-.51,2.28,2.28,0,0,1-1.17-.86,2.08,2.08,0,0,1-.36-1.15V500.16c0-2.28.64-3.91,1.94-4.88a6.91,6.91,0,0,1,4.24-1.45h7.24a17.87,17.87,0,0,1,4.28.43,8.72,8.72,0,0,1,3.09,1.41,12.36,12.36,0,0,1,2.65,2.73,36.3,36.3,0,0,1,2.68,4.41l26,48.59q2.4,4.46,4.63,8.68t4.3,8.34q2.07,4.11,4.09,8.09t4,8h.09q-.18-6.75-.21-14.07c0-4.88-.05-9.56-.05-14.07V496.31a1.89,1.89,0,0,1,.36-1.11,3,3,0,0,1,1.22-.9,8.08,8.08,0,0,1,2.26-.56,32.22,32.22,0,0,1,3.65-.17,30.5,30.5,0,0,1,3.43.17,7.48,7.48,0,0,1,2.26.56,3.09,3.09,0,0,1,1.18.9,1.89,1.89,0,0,1,.36,1.11Z" transform="translate(-8.3)"/><path class="cls-10" d="M841.22,573.47a32.12,32.12,0,0,1-2.87,13.86,29.7,29.7,0,0,1-8,10.3,34.53,34.53,0,0,1-12,6.38,50,50,0,0,1-14.84,2.13,53.69,53.69,0,0,1-10.31-.93,56.24,56.24,0,0,1-8.47-2.32,40.52,40.52,0,0,1-6.24-2.82,16.66,16.66,0,0,1-3.51-2.48A6.25,6.25,0,0,1,773.6,595a15,15,0,0,1-.47-4.23,22.42,22.42,0,0,1,.17-3.12,7.31,7.31,0,0,1,.51-2,2.23,2.23,0,0,1,.86-1.07,2.32,2.32,0,0,1,1.2-.3,7,7,0,0,1,3.37,1.45,53,53,0,0,0,13.86,6.37,37.7,37.7,0,0,0,11.17,1.5,28.56,28.56,0,0,0,8.76-1.28,20.65,20.65,0,0,0,6.85-3.64,15.63,15.63,0,0,0,4.4-5.77,18.74,18.74,0,0,0,1.54-7.79,14.58,14.58,0,0,0-2.14-8,21.58,21.58,0,0,0-5.64-5.86,50.17,50.17,0,0,0-8-4.62l-9.2-4.27a102.45,102.45,0,0,1-9.15-4.84,38.39,38.39,0,0,1-8-6.24,28.9,28.9,0,0,1-5.69-8.43,27.91,27.91,0,0,1-2.18-11.59,29,29,0,0,1,2.52-12.36,25.47,25.47,0,0,1,7-9.11,31.33,31.33,0,0,1,10.7-5.6,45,45,0,0,1,13.38-1.93,43.28,43.28,0,0,1,7.4.65,48.69,48.69,0,0,1,7,1.71,39.4,39.4,0,0,1,5.86,2.39,15.7,15.7,0,0,1,3.38,2.14,7,7,0,0,1,1.07,1.28,4.91,4.91,0,0,1,.42,1.2,11.7,11.7,0,0,1,.26,1.75c.06.69.08,1.57.08,2.66s0,1.93-.12,2.73a10.85,10.85,0,0,1-.39,2,2.39,2.39,0,0,1-.73,1.2,1.62,1.62,0,0,1-1.06.39,6.9,6.9,0,0,1-3-1.2q-2-1.2-4.91-2.7a43.55,43.55,0,0,0-6.89-2.73,29.86,29.86,0,0,0-8.94-1.24,23.5,23.5,0,0,0-8,1.24,16.45,16.45,0,0,0-5.65,3.29,13,13,0,0,0-3.33,4.88,16.17,16.17,0,0,0-1.12,6,14.5,14.5,0,0,0,2.14,8,21.91,21.91,0,0,0,5.69,5.9,50.93,50.93,0,0,0,8.09,4.71l9.23,4.32q4.71,2.17,9.24,4.79a38.41,38.41,0,0,1,8.09,6.16,28.19,28.19,0,0,1,5.73,8.38A27.63,27.63,0,0,1,841.22,573.47Z" transform="translate(-8.3)"/><path class="cls-10" d="M923.85,598.45a17.81,17.81,0,0,1-.17,2.69,5.55,5.55,0,0,1-.6,1.93,2.92,2.92,0,0,1-1,1.11,2.29,2.29,0,0,1-1.24.34H867.74a6,6,0,0,1-3.72-1.33q-1.75-1.32-1.76-4.66V499.82c0-2.23.59-3.78,1.76-4.67a6,6,0,0,1,3.72-1.32h52.52a2.29,2.29,0,0,1,1.24.34,2.43,2.43,0,0,1,.9,1.11,9.16,9.16,0,0,1,.56,1.93,16.33,16.33,0,0,1,.21,2.86,15.26,15.26,0,0,1-.21,2.7,8,8,0,0,1-.56,1.88,2.47,2.47,0,0,1-.9,1.07,2.29,2.29,0,0,1-1.24.34H877v34.73H914.1a2.1,2.1,0,0,1,1.24.39,3,3,0,0,1,.94,1.07,5.45,5.45,0,0,1,.56,1.88A20.92,20.92,0,0,1,917,547a18.22,18.22,0,0,1-.17,2.65,5.46,5.46,0,0,1-.56,1.8,2.35,2.35,0,0,1-.94,1,2.56,2.56,0,0,1-1.24.3H877v39.61h43.88a2.29,2.29,0,0,1,1.24.34,2.93,2.93,0,0,1,1,1.07,5,5,0,0,1,.6,1.88A19.3,19.3,0,0,1,923.85,598.45Z" transform="translate(-8.3)"/><path class="cls-10" d="M1021.63,602.3a2.64,2.64,0,0,1-.26,1.19,2,2,0,0,1-1.11.86,9.3,9.3,0,0,1-2.4.51,37.24,37.24,0,0,1-4.1.17,30.06,30.06,0,0,1-3.64-.17,7.93,7.93,0,0,1-2.26-.55,3.18,3.18,0,0,1-1.33-1.07,6.81,6.81,0,0,1-.81-1.71l-10.18-26.09q-1.8-4.46-3.72-8.17a26.52,26.52,0,0,0-4.58-6.42,18.84,18.84,0,0,0-6.24-4.19,22.42,22.42,0,0,0-8.64-1.5h-9.84V602.3a1.91,1.91,0,0,1-.39,1.19,2.46,2.46,0,0,1-1.19.82,11.85,11.85,0,0,1-2.23.51,30.11,30.11,0,0,1-7.1,0,12.79,12.79,0,0,1-2.27-.51,2.2,2.2,0,0,1-1.19-.82,2.08,2.08,0,0,1-.35-1.19V499.82c0-2.23.59-3.78,1.76-4.67a6.09,6.09,0,0,1,3.72-1.32H976.8c2.8,0,5.12.07,7,.21s3.52.3,5,.47a42.1,42.1,0,0,1,11.33,3.51,27,27,0,0,1,8.26,6.07,24.66,24.66,0,0,1,5,8.43A31.26,31.26,0,0,1,1015,523a30.75,30.75,0,0,1-1.5,10,23.78,23.78,0,0,1-4.32,7.79,28.56,28.56,0,0,1-6.75,5.86,43.75,43.75,0,0,1-8.81,4.19,21,21,0,0,1,5,3,25.77,25.77,0,0,1,4.15,4.4,41.4,41.4,0,0,1,3.63,5.9q1.71,3.35,3.42,7.53l9.93,24.38c.79,2.05,1.31,3.49,1.54,4.32A8.23,8.23,0,0,1,1021.63,602.3Zm-22.16-77.76a19.79,19.79,0,0,0-2.91-11c-1.93-3-5.19-5.15-9.75-6.46a27.36,27.36,0,0,0-4.83-.86q-2.7-.25-7.06-.25h-12.4v37.29h14.37a31.9,31.9,0,0,0,10.05-1.41,19.89,19.89,0,0,0,7.06-3.93,15.47,15.47,0,0,0,4.15-5.95A20.49,20.49,0,0,0,999.47,524.54Z" transform="translate(-8.3)"/><path class="cls-10" d="M1085.27,602a4.06,4.06,0,0,1-.94,1.54,4,4,0,0,1-1.67.94,11.78,11.78,0,0,1-2.74.47c-1.11.09-2.49.13-4.14.13-1.26,0-2.36,0-3.3,0a19.68,19.68,0,0,1-2.44-.21,16.91,16.91,0,0,1-1.75-.39,4.73,4.73,0,0,1-1.24-.55,2.75,2.75,0,0,1-.81-.82,5.87,5.87,0,0,1-.56-1.15L1029.5,499.05a10.58,10.58,0,0,1-.73-3,2,2,0,0,1,.73-1.75,4.83,4.83,0,0,1,2.48-.77q1.71-.18,4.62-.18c1.59,0,2.86.05,3.8.13a7.68,7.68,0,0,1,2.19.47,2.73,2.73,0,0,1,1.15.9,7.07,7.07,0,0,1,.73,1.41l31.73,93.16h.09l30.88-93a6.42,6.42,0,0,1,.6-1.53,2.32,2.32,0,0,1,1.2-.95,9,9,0,0,1,2.39-.47c1-.08,2.4-.13,4.11-.13a32.44,32.44,0,0,1,4.19.22,3.47,3.47,0,0,1,2.09.81,2.09,2.09,0,0,1,.43,1.76,13.29,13.29,0,0,1-.81,3Z" transform="translate(-8.3)"/><path class="cls-10" d="M1154.65,602.3a2.08,2.08,0,0,1-.35,1.19,2.28,2.28,0,0,1-1.19.82,12.79,12.79,0,0,1-2.27.51,29.77,29.77,0,0,1-7.06,0,12.72,12.72,0,0,1-2.31-.51,2.27,2.27,0,0,1-1.2-.82,2.16,2.16,0,0,1-.34-1.19V496.05a1.91,1.91,0,0,1,.39-1.19,2.48,2.48,0,0,1,1.28-.82,14,14,0,0,1,2.31-.51,23.24,23.24,0,0,1,3.38-.22,24.68,24.68,0,0,1,3.55.22,12.79,12.79,0,0,1,2.27.51,2.28,2.28,0,0,1,1.19.82,2.08,2.08,0,0,1,.35,1.19Z" transform="translate(-8.3)"/><path class="cls-10" d="M1258,588.87c0,.91,0,1.71-.08,2.39a10.37,10.37,0,0,1-.3,1.8,6.33,6.33,0,0,1-.56,1.37,7.57,7.57,0,0,1-1.2,1.45,25,25,0,0,1-3.59,2.61,42.86,42.86,0,0,1-6.8,3.42,57,57,0,0,1-9.32,2.82,53.74,53.74,0,0,1-11.51,1.16,50.54,50.54,0,0,1-19.46-3.59,39.33,39.33,0,0,1-14.8-10.61,48.29,48.29,0,0,1-9.41-17.32,87,87,0,0,1,.26-48.29,53.31,53.31,0,0,1,10-18.27,42.82,42.82,0,0,1,15.36-11.42,48.67,48.67,0,0,1,19.8-3.93,47.74,47.74,0,0,1,9.32.9,58.72,58.72,0,0,1,8.39,2.27,38,38,0,0,1,6.84,3.16,23.12,23.12,0,0,1,4.15,2.95,10.45,10.45,0,0,1,1.5,1.75,6.18,6.18,0,0,1,.55,1.42,13.44,13.44,0,0,1,.34,1.92,22.53,22.53,0,0,1,.13,2.65,20.07,20.07,0,0,1-.17,2.91,8.38,8.38,0,0,1-.51,2,3.27,3.27,0,0,1-.82,1.2,1.78,1.78,0,0,1-1.16.38,6.39,6.39,0,0,1-3.36-1.66,53,53,0,0,0-5.54-3.68,45,45,0,0,0-8.26-3.68,36.08,36.08,0,0,0-11.65-1.67,30.44,30.44,0,0,0-13.46,2.95,28.41,28.41,0,0,0-10.36,8.69,42.63,42.63,0,0,0-6.67,14,77,77,0,0,0-.09,37.47,38.6,38.6,0,0,0,6.54,13.51,27.33,27.33,0,0,0,10.45,8.22,33.93,33.93,0,0,0,14,2.78,36.86,36.86,0,0,0,11.56-1.63,44.76,44.76,0,0,0,8.43-3.63,67.18,67.18,0,0,0,5.72-3.64,6.83,6.83,0,0,1,3.53-1.62,2,2,0,0,1,1,.25,1.79,1.79,0,0,1,.68,1,8.09,8.09,0,0,1,.39,2A32.08,32.08,0,0,1,1258,588.87Z" transform="translate(-8.3)"/><path class="cls-10" d="M1339.07,598.45a17.81,17.81,0,0,1-.17,2.69,5.55,5.55,0,0,1-.6,1.93,2.92,2.92,0,0,1-1,1.11,2.29,2.29,0,0,1-1.24.34H1283a6,6,0,0,1-3.72-1.33q-1.76-1.32-1.76-4.66V499.82c0-2.23.59-3.78,1.76-4.67a6.09,6.09,0,0,1,3.72-1.32h52.52a2.29,2.29,0,0,1,1.24.34,2.43,2.43,0,0,1,.9,1.11,9.16,9.16,0,0,1,.56,1.93,16.33,16.33,0,0,1,.21,2.86,15.26,15.26,0,0,1-.21,2.7,8,8,0,0,1-.56,1.88,2.47,2.47,0,0,1-.9,1.07,2.29,2.29,0,0,1-1.24.34H1292.2v34.73h37.12a2.1,2.1,0,0,1,1.24.39,3,3,0,0,1,.94,1.07,5.45,5.45,0,0,1,.56,1.88,20.92,20.92,0,0,1,.17,2.82,18.22,18.22,0,0,1-.17,2.65,5.46,5.46,0,0,1-.56,1.8,2.35,2.35,0,0,1-.94,1,2.56,2.56,0,0,1-1.24.3H1292.2v39.61h43.88a2.29,2.29,0,0,1,1.24.34,2.93,2.93,0,0,1,1,1.07,5,5,0,0,1,.6,1.88A19.3,19.3,0,0,1,1339.07,598.45Z" transform="translate(-8.3)"/></g></g><g class="cls-9"><path class="cls-11" d="M387.89,723.8a1.29,1.29,0,0,1-.2.72,1.38,1.38,0,0,1-.72.49,8.21,8.21,0,0,1-1.36.31,17.35,17.35,0,0,1-4.24,0A8,8,0,0,1,380,725a1.3,1.3,0,0,1-.72-.49,1.22,1.22,0,0,1-.21-.72V660a1.21,1.21,0,0,1,.23-.72,1.6,1.6,0,0,1,.77-.49,9.07,9.07,0,0,1,1.39-.3,13.13,13.13,0,0,1,2-.13,14.09,14.09,0,0,1,2.13.13,8.34,8.34,0,0,1,1.36.3,1.43,1.43,0,0,1,.72.49,1.34,1.34,0,0,1,.2.72Z" transform="translate(-8.3)"/><path class="cls-11" d="M455.78,721.49a4,4,0,0,1-.35,1.75,3.46,3.46,0,0,1-.9,1.18,3.52,3.52,0,0,1-1.25.67,5.06,5.06,0,0,1-1.38.2H449a9.2,9.2,0,0,1-2.42-.28,5.38,5.38,0,0,1-2-1,10.3,10.3,0,0,1-1.86-2,26.86,26.86,0,0,1-2-3.29L420.5,680.88q-1.59-2.93-3.21-6.14c-1.07-2.14-2.08-4.22-3-6.24h-.11c.07,2.47.12,5,.16,7.55s.05,5.12.05,7.65v40.1a1.23,1.23,0,0,1-.22.7,1.37,1.37,0,0,1-.73.51,8.06,8.06,0,0,1-1.35.31,17.68,17.68,0,0,1-4.28,0,7.33,7.33,0,0,1-1.33-.31,1.4,1.4,0,0,1-.71-.51,1.3,1.3,0,0,1-.21-.7V662.5a3.44,3.44,0,0,1,1.16-2.93,4.18,4.18,0,0,1,2.55-.87h4.34a10.94,10.94,0,0,1,2.57.25,5.44,5.44,0,0,1,1.86.85,7.13,7.13,0,0,1,1.59,1.64,22.11,22.11,0,0,1,1.61,2.65l15.58,29.16q1.44,2.67,2.78,5.21t2.58,5l2.46,4.85q1.22,2.4,2.41,4.8h.05c-.07-2.7-.11-5.52-.13-8.44s0-5.74,0-8.45V660.18a1.16,1.16,0,0,1,.22-.66,1.66,1.66,0,0,1,.73-.54,4.63,4.63,0,0,1,1.36-.34,21,21,0,0,1,2.19-.1,20.12,20.12,0,0,1,2.06.1,4.25,4.25,0,0,1,1.35.34,1.71,1.71,0,0,1,.71.54,1.16,1.16,0,0,1,.22.66Z" transform="translate(-8.3)"/><path class="cls-11" d="M545.69,723.8a1.23,1.23,0,0,1-.22.72,1.36,1.36,0,0,1-.74.49,8.57,8.57,0,0,1-1.35.31,15.06,15.06,0,0,1-2.14.13,15.45,15.45,0,0,1-2.09-.13,7.68,7.68,0,0,1-1.37-.31,1.42,1.42,0,0,1-.72-.49,1.22,1.22,0,0,1-.21-.72V665.94h-.1l-23.41,58.12a1.84,1.84,0,0,1-.44.62,2.32,2.32,0,0,1-.82.43,6,6,0,0,1-1.29.26,17.63,17.63,0,0,1-1.77.08,13.93,13.93,0,0,1-1.85-.11,6,6,0,0,1-1.28-.28,2.39,2.39,0,0,1-.8-.43,1.4,1.4,0,0,1-.38-.57l-22.39-58.12h-.05V723.8a1.22,1.22,0,0,1-.21.72,1.4,1.4,0,0,1-.74.49,8.52,8.52,0,0,1-1.38.31,15.58,15.58,0,0,1-2.16.13,15.27,15.27,0,0,1-2.12-.13,8.06,8.06,0,0,1-1.35-.31,1.29,1.29,0,0,1-.69-.49,1.37,1.37,0,0,1-.18-.72V662.7a3.72,3.72,0,0,1,1.15-3.08,3.92,3.92,0,0,1,2.55-.92h5.42a12.55,12.55,0,0,1,2.92.3,6.45,6.45,0,0,1,2.19,1,5.65,5.65,0,0,1,1.57,1.69,12.38,12.38,0,0,1,1.09,2.42l19,48.11h.26l19.77-48a14.26,14.26,0,0,1,1.25-2.62,6.72,6.72,0,0,1,1.49-1.72,5,5,0,0,1,1.8-.92,8.3,8.3,0,0,1,2.29-.28h5.69a4.54,4.54,0,0,1,1.48.23,2.93,2.93,0,0,1,1.2.72,3.66,3.66,0,0,1,.81,1.23,4.67,4.67,0,0,1,.32,1.82Z" transform="translate(-8.3)"/><path class="cls-11" d="M619,691.15a51.4,51.4,0,0,1-1.9,14.53,30.56,30.56,0,0,1-5.67,11,24.86,24.86,0,0,1-9.48,7,33.69,33.69,0,0,1-13.3,2.44,34.11,34.11,0,0,1-13-2.24,22.81,22.81,0,0,1-9-6.49,27.74,27.74,0,0,1-5.31-10.58,54.48,54.48,0,0,1-1.75-14.53A50.11,50.11,0,0,1,561.5,678a29.83,29.83,0,0,1,5.7-10.91,25.29,25.29,0,0,1,9.5-6.93,33.51,33.51,0,0,1,13.3-2.44,33.92,33.92,0,0,1,12.78,2.21,23.23,23.23,0,0,1,9.07,6.44,27.48,27.48,0,0,1,5.39,10.48A52.48,52.48,0,0,1,619,691.15Zm-9.35.61a51.85,51.85,0,0,0-1-10.5,24,24,0,0,0-3.33-8.42,16.13,16.13,0,0,0-6.23-5.57,21,21,0,0,0-9.64-2,19.77,19.77,0,0,0-9.64,2.15,18.2,18.2,0,0,0-6.34,5.76,23.9,23.9,0,0,0-3.48,8.39,46.52,46.52,0,0,0-1,10.09,55.6,55.6,0,0,0,1,10.78,24.07,24.07,0,0,0,3.28,8.5,15.78,15.78,0,0,0,6.18,5.55,21.24,21.24,0,0,0,9.72,2,20.07,20.07,0,0,0,9.74-2.15,17.41,17.41,0,0,0,6.36-5.83,24.74,24.74,0,0,0,3.44-8.5A49.33,49.33,0,0,0,609.66,691.76Z" transform="translate(-8.3)"/><path class="cls-11" d="M676.78,706.09a20,20,0,0,1-.8,5.78,17.45,17.45,0,0,1-2.23,4.75,16.64,16.64,0,0,1-3.47,3.69,20.16,20.16,0,0,1-4.57,2.67,26,26,0,0,1-5.44,1.62,36.66,36.66,0,0,1-6.65.54H636.26a3.57,3.57,0,0,1-2.23-.8,3.3,3.3,0,0,1-1-2.8V662.29a3.31,3.31,0,0,1,1-2.8,3.62,3.62,0,0,1,2.23-.79h15.1a34.69,34.69,0,0,1,9.75,1.13,17.21,17.21,0,0,1,6.35,3.28,13.57,13.57,0,0,1,3.82,5.29,18.48,18.48,0,0,1,1.28,7.09A17.53,17.53,0,0,1,672,680a14.83,14.83,0,0,1-1.67,4,13.68,13.68,0,0,1-2.77,3.27,14.94,14.94,0,0,1-3.83,2.36,16,16,0,0,1,5.09,1.87A15.42,15.42,0,0,1,673,695a16.15,16.15,0,0,1,2.8,4.93A18.14,18.14,0,0,1,676.78,706.09Zm-13.3-29.73a13.53,13.53,0,0,0-.67-4.36,8,8,0,0,0-2.1-3.32A9.5,9.5,0,0,0,657,666.6a21.06,21.06,0,0,0-6.1-.72h-9.11V687.4h10a14.25,14.25,0,0,0,5.53-.9,9.89,9.89,0,0,0,3.48-2.41,9.42,9.42,0,0,0,2-3.55A14,14,0,0,0,663.48,676.36Zm4,30.24a13.27,13.27,0,0,0-1-5.23,9.85,9.85,0,0,0-2.76-3.8,12.29,12.29,0,0,0-4.56-2.34,25.23,25.23,0,0,0-6.9-.8H641.76v23.42h12.81a17.47,17.47,0,0,0,5.28-.72,12,12,0,0,0,4-2.13,9.91,9.91,0,0,0,2.69-3.52A11.49,11.49,0,0,0,667.48,706.6Z" transform="translate(-8.3)"/><path class="cls-11" d="M699,723.8a1.22,1.22,0,0,1-.21.72,1.3,1.3,0,0,1-.72.49,8,8,0,0,1-1.36.31,15.32,15.32,0,0,1-2.13.13,15.5,15.5,0,0,1-2.1-.13,8.19,8.19,0,0,1-1.39-.31,1.38,1.38,0,0,1-.72-.49,1.29,1.29,0,0,1-.2-.72V660a1.15,1.15,0,0,1,.23-.72,1.56,1.56,0,0,1,.77-.49,9.18,9.18,0,0,1,1.38-.3,13.3,13.3,0,0,1,2-.13,13.91,13.91,0,0,1,2.13.13,8.1,8.1,0,0,1,1.36.3,1.35,1.35,0,0,1,.72.49,1.27,1.27,0,0,1,.21.72Z" transform="translate(-8.3)"/><path class="cls-11" d="M751.13,721.29A11.71,11.71,0,0,1,751,723a4,4,0,0,1-.33,1.18,1.76,1.76,0,0,1-.56.72,1.42,1.42,0,0,1-.8.23H720a3.57,3.57,0,0,1-2.23-.8,3.28,3.28,0,0,1-1.06-2.8V660a1.27,1.27,0,0,1,.21-.72,1.35,1.35,0,0,1,.72-.49,8.17,8.17,0,0,1,1.38-.3,14.26,14.26,0,0,1,2.11-.13,14,14,0,0,1,2.13.13,8.34,8.34,0,0,1,1.36.3,1.43,1.43,0,0,1,.72.49,1.26,1.26,0,0,1,.2.72v57.46h23.83a1.42,1.42,0,0,1,.8.23,1.79,1.79,0,0,1,.56.67,3.43,3.43,0,0,1,.33,1.15A12.26,12.26,0,0,1,751.13,721.29Z" transform="translate(-8.3)"/><path class="cls-11" d="M769.71,723.8a1.22,1.22,0,0,1-.2.72,1.38,1.38,0,0,1-.72.49,8,8,0,0,1-1.36.31,15.43,15.43,0,0,1-2.13.13,15.77,15.77,0,0,1-2.11-.13,8,8,0,0,1-1.38-.31,1.3,1.3,0,0,1-.72-.49,1.22,1.22,0,0,1-.21-.72V660a1.21,1.21,0,0,1,.23-.72,1.66,1.66,0,0,1,.77-.49,9.34,9.34,0,0,1,1.39-.3,13.22,13.22,0,0,1,2-.13,14,14,0,0,1,2.13.13,8.1,8.1,0,0,1,1.36.3,1.43,1.43,0,0,1,.72.49,1.26,1.26,0,0,1,.2.72Z" transform="translate(-8.3)"/><path class="cls-11" d="M837.13,722a6.25,6.25,0,0,1,.44,1.82,1.26,1.26,0,0,1-.38,1,2.44,2.44,0,0,1-1.36.46,24.31,24.31,0,0,1-2.55.11c-1.06,0-1.9,0-2.54-.08a5.74,5.74,0,0,1-1.44-.26,1.63,1.63,0,0,1-.72-.48,4.92,4.92,0,0,1-.43-.77l-5.7-16.18H794.82l-5.44,16a2.74,2.74,0,0,1-.41.8,2,2,0,0,1-.74.56,4.22,4.22,0,0,1-1.39.33,20.81,20.81,0,0,1-2.34.11,20,20,0,0,1-2.44-.13,2.48,2.48,0,0,1-1.33-.49,1.28,1.28,0,0,1-.36-1.05,6.25,6.25,0,0,1,.44-1.82l22.28-61.72a2.78,2.78,0,0,1,.54-.93,2.15,2.15,0,0,1,1-.56,7.5,7.5,0,0,1,1.64-.29c.67-.05,1.51-.07,2.54-.07s2,0,2.72.07a8.45,8.45,0,0,1,1.75.29,2.21,2.21,0,0,1,1,.59,2.7,2.7,0,0,1,.57.95Zm-28.6-54.48h0L797,700.65h23.11Z" transform="translate(-8.3)"/><path class="cls-11" d="M892.54,723.8a1.47,1.47,0,0,1-.16.72,1.18,1.18,0,0,1-.66.52,5.76,5.76,0,0,1-1.44.3,22.78,22.78,0,0,1-2.47.11,18.26,18.26,0,0,1-2.18-.11,4.36,4.36,0,0,1-1.36-.33,1.81,1.81,0,0,1-.79-.64,3.8,3.8,0,0,1-.49-1l-6.11-15.66q-1.08-2.67-2.24-4.9a15.59,15.59,0,0,0-2.74-3.85,11.36,11.36,0,0,0-3.75-2.52,13.47,13.47,0,0,0-5.19-.9h-5.9V723.8a1.17,1.17,0,0,1-.23.72,1.56,1.56,0,0,1-.72.49,7.47,7.47,0,0,1-1.34.31,15.32,15.32,0,0,1-2.13.13,15.54,15.54,0,0,1-2.13-.13,8.21,8.21,0,0,1-1.36-.31,1.38,1.38,0,0,1-.72-.49,1.22,1.22,0,0,1-.2-.72V662.29a3.31,3.31,0,0,1,1-2.8,3.62,3.62,0,0,1,2.23-.79h14.12c1.68,0,3.07,0,4.19.12s2.11.18,3,.29a25.21,25.21,0,0,1,6.81,2.1,16.21,16.21,0,0,1,5,3.65,14.49,14.49,0,0,1,3,5.06,18.78,18.78,0,0,1,1,6.29,18.56,18.56,0,0,1-.89,6,14.5,14.5,0,0,1-2.6,4.67,17.46,17.46,0,0,1-4.05,3.52,26.12,26.12,0,0,1-5.29,2.51,12.56,12.56,0,0,1,3,1.83,15,15,0,0,1,2.49,2.64,25.56,25.56,0,0,1,2.18,3.54c.68,1.34,1.37,2.85,2.05,4.52l6,14.64c.48,1.23.79,2.09.92,2.59A4.62,4.62,0,0,1,892.54,723.8Zm-13.3-46.67a11.85,11.85,0,0,0-1.75-6.6,9.84,9.84,0,0,0-5.85-3.88,17.38,17.38,0,0,0-2.9-.51c-1.08-.1-2.49-.15-4.24-.15h-7.44v22.39h8.62a19.34,19.34,0,0,0,6-.85,12,12,0,0,0,4.23-2.36,9.18,9.18,0,0,0,2.49-3.57A12.29,12.29,0,0,0,879.24,677.13Z" transform="translate(-8.3)"/><path class="cls-11" d="M914.16,723.8a1.22,1.22,0,0,1-.21.72,1.38,1.38,0,0,1-.72.49,8,8,0,0,1-1.36.31,15.32,15.32,0,0,1-2.13.13,15.77,15.77,0,0,1-2.11-.13,8,8,0,0,1-1.38-.31,1.38,1.38,0,0,1-.72-.49,1.22,1.22,0,0,1-.21-.72V660a1.16,1.16,0,0,1,.24-.72,1.56,1.56,0,0,1,.77-.49,8.91,8.91,0,0,1,1.38-.3,13.22,13.22,0,0,1,2-.13,13.91,13.91,0,0,1,2.13.13,8.1,8.1,0,0,1,1.36.3,1.43,1.43,0,0,1,.72.49,1.27,1.27,0,0,1,.21.72Z" transform="translate(-8.3)"/><path class="cls-11" d="M981.58,722a6.51,6.51,0,0,1,.43,1.82,1.26,1.26,0,0,1-.38,1,2.44,2.44,0,0,1-1.36.46,24.18,24.18,0,0,1-2.55.11c-1.06,0-1.9,0-2.54-.08a5.56,5.56,0,0,1-1.43-.26,1.52,1.52,0,0,1-.72-.48,4.22,4.22,0,0,1-.44-.77l-5.7-16.18H939.26l-5.44,16a2.74,2.74,0,0,1-.41.8,2,2,0,0,1-.74.56,4.22,4.22,0,0,1-1.39.33,20.81,20.81,0,0,1-2.34.11,20,20,0,0,1-2.44-.13,2.48,2.48,0,0,1-1.33-.49,1.28,1.28,0,0,1-.36-1.05,6.25,6.25,0,0,1,.44-1.82l22.28-61.72a2.78,2.78,0,0,1,.54-.93,2.15,2.15,0,0,1,1-.56,7.5,7.5,0,0,1,1.64-.29c.67-.05,1.51-.07,2.54-.07s2,0,2.72.07a8.45,8.45,0,0,1,1.75.29,2.24,2.24,0,0,1,1,.59,2.85,2.85,0,0,1,.56.95ZM953,667.53h-.05l-11.45,33.12h23.11Z" transform="translate(-8.3)"/></g><line class="cls-12" x1="17.16" y1="691.03" x2="328.12" y2="691.03"/><line class="cls-12" x1="1008.24" y1="691.03" x2="1319.21" y2="691.03"/></g></svg>