<?xml version="1.0" encoding="utf-8"?>
<!-- Generator: Adobe Illustrator 22.1.0, SVG Export Plug-In . SVG Version: 6.00 Build 0)  -->
<svg version="1.1" id="Capa_1" xmlns="http://www.w3.org/2000/svg" xmlns:xlink="http://www.w3.org/1999/xlink" x="0px" y="0px"
	 viewBox="0 0 1976 540.1" style="enable-background:new 0 0 1976 540.1;" xml:space="preserve">
<style type="text/css">
	.st0{fill:#FFDD0F;}
	.st1{fill:#F09300;}
	.st2{fill:#BD1522;}
	.st3{fill:#CF1E20;}
	.st4{fill:#FAB234;}
	.st5{fill:#EB6E04;}
	.st6{fill:#1F8BB9;}
	.st7{fill:#2DAAE2;}
	.st8{fill:#FFFFFF;}
	.st9{fill:#143D62;stroke:#FFFFFF;stroke-width:5;stroke-miterlimit:10;}
</style>
<title>logo_horizontal</title>
<ellipse class="st0" cx="149.1" cy="183.6" rx="132.8" ry="136.4"/>
<polygon class="st1" points="200,121.8 414.6,107.2 391,434.5 236.4,434.5 "/>
<polygon class="st2" points="141.8,436.4 120,194.5 281.9,205.4 281.9,443.6 "/>
<polygon class="st3" points="210.9,200 281.9,203.6 281.9,443.6 240,443.6 "/>
<polygon class="st4" points="354.6,180 545.5,154.5 529.2,427.3 354.6,436.4 "/>
<polygon class="st5" points="354.6,180 407.4,172.7 389.2,434.5 354.6,434.5 "/>
<path class="st6" d="M640.7,475.7c-20.9,4.6-308.1,64-640.7-62.1c0,0,197.2,27.5,378.2,18.4C397.3,444.5,470,482.1,640.7,475.7z"/>
<path class="st7" d="M641.9,360.9v114.6l-1.2,0.3C470,482.1,397.3,444.5,378.2,432C488,426.5,591.8,407.6,641.9,360.9z"/>
<g>
	<path class="st8" d="M1037,395.6c0,0.3-0.1,0.5-0.2,0.7c-0.2,0.2-0.4,0.4-0.7,0.5c-0.5,0.1-0.9,0.3-1.4,0.3
		c-0.7,0.1-1.4,0.1-2.2,0.1c-0.7,0-1.4,0-2.2-0.1c-0.5-0.1-1-0.2-1.4-0.3c-0.3-0.1-0.5-0.3-0.7-0.5c-0.1-0.2-0.2-0.5-0.2-0.7v-65
		c0-0.3,0.1-0.5,0.2-0.7c0.2-0.2,0.5-0.4,0.8-0.5c0.5-0.1,0.9-0.2,1.4-0.3c0.7-0.1,1.4-0.1,2.1-0.1s1.5,0,2.2,0.1
		c0.5,0.1,0.9,0.2,1.4,0.3c0.3,0.1,0.5,0.3,0.7,0.5c0.1,0.2,0.2,0.5,0.2,0.7L1037,395.6L1037,395.6z"/>
	<path class="st8" d="M1105,392.7c-0.3,0.7-0.4,1.3-0.6,1.8s-0.5,0.9-0.9,1.2c-0.4,0.3-0.8,0.5-1.3,0.7l-1.4,0.4h-3.1
		c-0.8,0-1.6-0.1-2.4-0.3c-0.7-0.2-1.4-0.5-2-1c-0.7-0.6-1.3-1.3-1.9-2c-0.7-1.1-1.4-2.2-2-3.3l-20.3-37.9c-1.1-2-2.1-4-3.2-6.2
		s-2.1-4.2-3-6.3h-0.1c0.1,2.5,0.1,5,0.2,7.6c0,2.6,0,5.1,0,7.7v39.3c0,0.2-0.1,0.5-0.2,0.7c-0.2,0.2-0.4,0.4-0.8,0.5
		c-0.5,0.1-0.9,0.2-1.4,0.3c-1.4,0.2-2.9,0.2-4.4,0c-0.5-0.1-0.9-0.2-1.3-0.3c-0.3-0.1-0.5-0.3-0.7-0.5c-0.1-0.2-0.2-0.4-0.2-0.7
		v-60.9c-0.1-1.1,0.3-2.2,1.2-2.9c0.7-0.6,1.7-0.9,2.6-0.9h4.4c0.9,0,1.8,0.1,2.6,0.3c0.7,0.2,1.3,0.5,1.9,0.9
		c0.6,0.5,1.2,1,1.6,1.6c0.6,0.8,1.2,1.7,1.6,2.6l15.9,28.9c1,1.8,1.9,3.5,2.8,5.2s1.8,3.3,2.6,5s1.7,3.2,2.5,4.8s1.6,3.2,2.4,4.8
		h-0.2c0,0-0.1-4.9-0.1-7.8s0-5.7,0.1-8.5v-36.1c-0.1-0.2-0.1-0.5,0.1-0.7c0.2-0.2,0.4-0.4,0.7-0.5c0.4-0.2,0.9-0.3,1.4-0.3
		c0.7-0.1,1.5-0.1,2.2-0.1s1.4,0,2.1,0.1c0.5,0,0.9,0.2,1.3,0.3c0.3,0.1,0.5,0.3,0.7,0.5c0.1,0.2,0.3,0.5,0.5,0.7L1105,392.7z"/>
	<path class="st8" d="M1195,395.4c0,0.3-0.1,0.5-0.2,0.7c-0.2,0.2-0.5,0.4-0.8,0.5c-0.5,0.1-0.9,0.2-1.4,0.3
		c-0.7,0.1-1.5,0.1-2.2,0.1s-1.4,0-2.1-0.1c-0.5-0.1-0.9-0.2-1.4-0.3c-0.3-0.1-0.5-0.3-0.7-0.5c-0.1-0.2-0.2-0.5-0.2-0.7v-58.7h0.5
		l-23.9,56.2c-0.1,0.2-0.3,0.4-0.4,0.6c-0.2,0.2-0.5,0.3-0.8,0.4c-0.4,0.1-0.9,0.2-1.3,0.2c-0.5,0-1.1,0.1-1.8,0.1
		c-0.6,0-1.3,0-1.9-0.1c-0.4-0.1-0.9-0.1-1.3-0.3c-0.3-0.1-0.6-0.2-0.8-0.4c-0.2-0.1-0.3-0.3-0.4-0.5l-22.8-56.2l0,0v56
		c0,0.2-0.1,0.5-0.2,0.7c-0.2,0.2-0.5,0.4-0.8,0.5c-0.5,0.1-0.9,0.2-1.4,0.3c-0.7,0.1-1.5,0.1-2.2,0.1s-1.4,0-2.2-0.1
		c-0.5-0.1-0.9-0.2-1.4-0.3c-0.3-0.1-0.5-0.2-0.7-0.5c-0.1-0.2-0.2-0.4-0.2-0.7v-59.1c-0.1-1.1,0.3-2.2,1.2-3
		c0.7-0.6,1.7-0.9,2.6-0.9h4.9c1,0,2,0.1,3,0.3c0.8,0.2,1.6,0.5,2.2,1s1.2,1,1.6,1.7c0.5,0.8,0.8,1.6,1.1,2.4l19.3,48.6h0.3
		l20.1-48.4c0.3-0.9,0.8-1.8,1.3-2.6c0.4-0.7,0.9-1.2,1.5-1.7c0.5-0.4,1.2-0.7,1.8-0.9c0.8-0.2,1.5-0.3,2.3-0.3h5.8
		c0.5,0,1,0.1,1.5,0.2c0.5,0.1,0.9,0.4,1.2,0.7c0.4,0.4,0.6,0.8,0.8,1.2c0.2,0.6,0.3,1.2,0.3,1.8L1195,395.4z"/>
	<path class="st8" d="M1268,362.4c0.1,4.9-0.6,9.8-1.9,14.5c-1.1,4-3,7.8-5.7,11c-2.6,3.1-5.8,5.5-9.5,7c-4.2,1.7-8.7,2.5-13.3,2.4
		c-4.4,0.1-8.9-0.7-13-2.2c-3.5-1.4-6.6-3.6-9-6.5c-2.5-3.1-4.3-6.7-5.3-10.6c-1.2-4.7-1.8-9.6-1.8-14.5c-0.1-4.8,0.6-9.6,1.9-14.3
		c1.1-4,3.1-7.7,5.7-10.9c2.6-3,5.8-5.4,9.5-6.9c4.2-1.7,8.7-2.5,13.3-2.4c4.4-0.1,8.7,0.7,12.8,2.2c3.5,1.4,6.6,3.6,9.1,6.4
		c2.5,3.1,4.4,6.6,5.4,10.5C1267.5,352.7,1268.1,357.5,1268,362.4z M1258.7,363c0-3.5-0.3-7-1-10.5c-0.6-3-1.7-5.9-3.3-8.4
		c-1.6-2.4-3.7-4.3-6.2-5.6c-3-1.4-6.3-2.1-9.6-2c-3.3-0.1-6.7,0.6-9.6,2.1c-2.5,1.4-4.7,3.4-6.3,5.8c-1.7,2.5-2.9,5.4-3.5,8.4
		c-0.7,3.3-1,6.7-1,10.1c0,3.6,0.3,7.2,1,10.8c0.5,3,1.7,5.9,3.3,8.5c1.5,2.4,3.7,4.3,6.2,5.5c3,1.4,6.4,2.1,9.7,2
		c3.4,0.1,6.7-0.6,9.7-2.1c2.6-1.4,4.8-3.4,6.4-5.8c1.7-2.6,2.8-5.5,3.4-8.5C1258.4,369.8,1258.7,366.4,1258.7,363L1258.7,363z"/>
	<path class="st8" d="M1325.5,376.8c0,1.9-0.3,3.9-0.8,5.7c-0.5,1.7-1.2,3.3-2.2,4.7c-1,1.4-2.1,2.6-3.4,3.7c-1.4,1.1-2.9,2-4.5,2.6
		c-1.7,0.7-3.5,1.3-5.4,1.6c-2.2,0.4-4.4,0.6-6.6,0.5h-17.2c-0.8,0-1.6-0.3-2.2-0.8c-0.8-0.7-1.1-1.7-1-2.8v-58.9
		c-0.1-1,0.2-2.1,1-2.8c0.6-0.5,1.4-0.8,2.2-0.8h15c3.3-0.1,6.5,0.3,9.7,1.1c2.3,0.6,4.5,1.8,6.3,3.3c1.7,1.4,3,3.2,3.8,5.3
		c0.9,2.2,1.3,4.6,1.3,7c0,1.5-0.2,3-0.6,4.5c-0.4,1.4-0.9,2.8-1.7,4c-0.7,1.2-1.7,2.3-2.8,3.2c-1.1,1-2.4,1.8-3.8,2.4
		c1.8,0.3,3.5,1,5,1.9c1.6,0.9,2.9,2.1,4.1,3.4c1.2,1.5,2.1,3.1,2.8,4.9C1325.2,372.6,1325.5,374.7,1325.5,376.8z M1313.2,347.4
		c0-1.5-0.2-3-0.7-4.5c-0.4-1.3-1.2-2.5-2.2-3.4c-1.1-1-2.4-1.7-3.8-2.1c-2-0.5-4.1-0.8-6.2-0.7h-9.3v22h10.3
		c1.9,0.1,3.8-0.2,5.7-0.9c1.4-0.6,2.6-1.4,3.6-2.5c0.9-1,1.6-2.3,2.1-3.6C1313,350.3,1313.2,348.9,1313.2,347.4z M1316.3,377.6
		c0-1.8-0.3-3.5-0.9-5.1c-0.6-1.4-1.5-2.7-2.7-3.7c-1.3-1.1-2.8-1.9-4.5-2.3c-2.2-0.6-4.5-0.8-6.8-0.8H1291v23h12.6
		c1.8,0,3.5-0.2,5.2-0.7c1.4-0.4,2.7-1.1,3.9-2.1c1.1-0.9,2-2.1,2.6-3.5C1316,380.9,1316.3,379.3,1316.3,377.6z"/>
	<path class="st8" d="M1348,395.6c0,0.3-0.1,0.5-0.2,0.7c-0.2,0.2-0.4,0.4-0.7,0.5c-0.5,0.2-0.9,0.3-1.4,0.3
		c-0.7,0.1-1.4,0.1-2.2,0.1c-0.7,0-1.4,0-2.2-0.1c-0.5-0.1-1-0.2-1.4-0.3c-0.3-0.1-0.5-0.3-0.7-0.5c-0.1-0.2-0.2-0.5-0.2-0.7v-65
		c0-0.3,0.1-0.5,0.2-0.7c0.2-0.2,0.5-0.4,0.8-0.5c0.5-0.1,0.9-0.2,1.4-0.3c0.7-0.1,1.4-0.1,2.1-0.1s1.5,0,2.2,0.1
		c0.5,0.1,0.9,0.2,1.4,0.3c0.3,0.1,0.5,0.3,0.7,0.5c0.1,0.2,0.2,0.5,0.2,0.7L1348,395.6L1348,395.6z"/>
	<path class="st8" d="M1400.1,392.5c0,0.6,0,1.1-0.1,1.7c0,0.4-0.2,0.8-0.3,1.2c-0.1,0.3-0.3,0.5-0.6,0.7c-0.3,0.1-0.6,0.3-0.8,0.6
		h-29.4c-0.8-0.3-1.5-0.7-2.2-1.1c-0.8-0.7-1.1-1.8-0.7-2.8v-61.5c-0.4-0.3-0.3-0.5-0.2-0.7c0.2-0.2,0.4-0.4,0.7-0.5
		c0.5-0.1,0.9-0.2,1.4-0.3c0.7-0.1,1.4-0.1,2.1-0.1s1.4,0,2.1,0.1c0.5,0.1,0.9,0.2,1.4,0.3c0.3,0.1,0.5,0.3,0.7,0.5
		c0.2,0.3,0.4,0.6,0.8,0.7v57.5h23.3c0.3,0,0.6,0.1,0.8,0.2c0.2,0.2,0.4,0.4,0.6,0.7c0.2,0.4,0.3,0.7,0.3,1.1
		C1400,391.3,1400.1,391.9,1400.1,392.5z"/>
	<path class="st8" d="M1419,395.6c0,0.3-0.1,0.5-0.2,0.7c-0.2,0.2-0.4,0.4-0.7,0.5c-0.5,0.2-0.9,0.3-1.4,0.3
		c-0.7,0.1-1.4,0.1-2.2,0.1c-0.7,0-1.4,0-2.2-0.1c-0.5-0.1-1-0.2-1.4-0.3c-0.3-0.1-0.5-0.3-0.7-0.5c-0.1-0.2-0.2-0.5-0.2-0.7v-65
		c0-0.3,0.1-0.5,0.2-0.7c0.2-0.2,0.5-0.4,0.8-0.5c0.5-0.1,0.9-0.2,1.4-0.3c0.7-0.1,1.4-0.1,2.1-0.1s1.5,0,2.2,0.1
		c0.5,0.1,0.9,0.2,1.4,0.3c0.3,0.1,0.5,0.3,0.7,0.5c0.1,0.2,0.2,0.5,0.2,0.7L1419,395.6L1419,395.6z"/>
	<path class="st8" d="M1486.1,393c0.2,0.6,0.4,1.2,0.4,1.8c0,0.4-0.1,0.8-0.4,1c-0.4,0.3-0.9,0.4-1.4,0.5c-0.8,0.1-1.7,0.1-2.6,0.1
		c-1.1,0-1.9,0-2.5-0.1c-0.5,0-1-0.1-1.4-0.3c-0.3-0.1-0.5-0.3-0.7-0.5s-0.3-0.5-0.4-0.8l-5.7-16.2h-27.6l-5.4,16
		c-0.1,0.3-0.2,0.6-0.4,0.8c-0.2,0.2-0.4,0.4-0.7,0.6c-0.4,0.2-0.9,0.3-1.4,0.3c-0.8,0.1-1.6,0.1-2.3,0.1c-0.8,0-1.6,0-2.4-0.1
		c-0.5,0-0.9-0.2-1.3-0.5c-0.3-0.3-0.4-0.7-0.4-1c0.1-0.6,0.2-1.2,0.4-1.8l22.2-61.8c0.1-0.3,0.3-0.7,0.5-0.9c0.3-0.3,0.6-0.5,1-0.6
		c0.5-0.2,1.1-0.3,1.6-0.3c0.7,0,1.5-0.1,2.5-0.1s2,0,2.7,0.1c0.6,0,1.2,0.1,1.8,0.3c0.4,0.1,0.7,0.3,1,0.6c0.2,0.3,0.4,0.6,0.6,1
		L1486.1,393z M1457.5,338.7L1457.5,338.7l-11.4,33h23L1457.5,338.7z"/>
	<path class="st8" d="M1542.2,395.1c0,0.3,0,0.5-0.2,0.7s-0.4,0.4-0.7,0.5c-0.5,0.2-1,0.3-1.5,0.3c-0.8,0.1-1.7,0.1-2.5,0.1
		c-0.7,0-1.5,0-2.2-0.1c-0.5,0-0.9-0.2-1.4-0.3c-0.3-0.1-0.6-0.4-0.8-0.6c-0.2-0.3-0.4-0.6-0.5-1l-6.2-15.7
		c-0.7-1.8-1.5-3.4-2.3-4.9c-0.7-1.4-1.7-2.7-2.8-3.9c-1.1-1.1-2.4-1.9-3.8-2.5c-1.7-0.6-3.5-0.9-5.3-0.9h-6v28.4
		c0,0.3-0.1,0.5-0.2,0.7c-0.2,0.2-0.5,0.4-0.7,0.5c-0.4,0.1-0.9,0.2-1.4,0.3c-1.4,0.2-2.9,0.2-4.3,0c-0.5-0.1-0.9-0.2-1.4-0.3
		c-0.3-0.1-0.5-0.3-0.7-0.5c-0.1-0.2-0.2-0.5-0.2-0.7v-61.9c-0.1-1.1,0.3-2.1,1.1-2.8c0.7-0.5,1.5-0.8,2.3-0.8h14.4
		c1.7,0,3.1,0,4.3,0.1s2.2,0.2,3.1,0.3c2.4,0.4,4.7,1.1,6.9,2.1c1.9,0.9,3.6,2.1,5,3.7c1.4,1.5,2.4,3.2,3.1,5.1c0.7,2,1,4.2,1,6.3
		c0,2-0.3,4.1-0.9,6c-0.6,1.7-1.5,3.3-2.6,4.7c-1.2,1.4-2.6,2.6-4.1,3.5c-1.7,1-3.5,1.9-5.4,2.5c1.1,0.5,2.1,1.1,3,1.8
		c1,0.8,1.8,1.7,2.5,2.7c0.8,1.1,1.6,2.3,2.2,3.6c0.7,1.3,1.4,2.8,2.1,4.5l6.1,14.7c0.5,1.2,0.8,2.1,0.9,2.6
		C1542,394.3,1542.1,394.7,1542.2,395.1z M1527.8,348.6c0.1-2.3-0.5-4.5-1.7-6.5c-1.4-1.9-3.4-3.3-5.8-3.8c-0.9-0.3-1.9-0.4-2.8-0.5
		c-1.1-0.1-2.4-0.1-4.2-0.1h-7.3v22h8.5c2,0,4-0.2,5.9-0.8c1.5-0.5,2.9-1.3,4.2-2.3c1.1-1,1.9-2.2,2.4-3.5
		C1527.5,351.6,1527.8,350.1,1527.8,348.6z"/>
	<path class="st8" d="M1563,395.6c0,0.3-0.1,0.5-0.2,0.7c-0.2,0.2-0.4,0.4-0.7,0.5c-0.5,0.2-0.9,0.3-1.4,0.3
		c-0.7,0.1-1.4,0.1-2.2,0.1c-0.7,0-1.4,0-2.2-0.1c-0.5-0.1-1-0.2-1.4-0.3c-0.3-0.1-0.5-0.3-0.7-0.5c-0.1-0.2-0.2-0.5-0.2-0.7v-65
		c0-0.3,0.1-0.5,0.2-0.7c0.2-0.2,0.5-0.4,0.8-0.5c0.5-0.1,0.9-0.2,1.4-0.3c0.7-0.1,1.4-0.1,2.1-0.1s1.5,0,2.2,0.1
		c0.5,0.1,0.9,0.2,1.4,0.3c0.3,0.1,0.5,0.3,0.7,0.5c0.1,0.2,0.2,0.5,0.2,0.7L1563,395.6L1563,395.6z"/>
	<path class="st8" d="M1630.5,393c0.2,0.6,0.4,1.2,0.4,1.8c0,0.4-0.1,0.8-0.4,1c-0.4,0.3-0.9,0.4-1.4,0.5c-0.8,0.1-1.7,0.1-2.5,0.1
		c-1.1,0-1.9,0-2.6-0.1c-0.5,0-1-0.1-1.4-0.3c-0.3-0.1-0.5-0.3-0.7-0.5s-0.3-0.5-0.4-0.8l-5.7-16.2h-27.6l-5.4,16
		c-0.1,0.3-0.2,0.6-0.4,0.8c-0.2,0.2-0.4,0.4-0.7,0.6c-0.4,0.2-0.9,0.3-1.4,0.3c-0.8,0.1-1.6,0.1-2.3,0.1c-0.8,0-1.6,0-2.4-0.1
		c-0.5,0-1-0.2-1.3-0.5s-0.4-0.7-0.4-1c0.1-0.6,0.2-1.2,0.4-1.8l22.3-61.8c0.1-0.3,0.3-0.7,0.5-0.9c0.3-0.3,0.6-0.5,1-0.6
		c0.5-0.2,1.1-0.3,1.6-0.3c0.7,0,1.5-0.1,2.5-0.1s2,0,2.7,0.1c0.6,0,1.2,0.1,1.8,0.3c0.4,0.1,0.7,0.3,1,0.6c0.3,0.3,0.4,0.6,0.6,1
		L1630.5,393z M1601.9,338.7L1601.9,338.7l-11.5,33h23L1601.9,338.7z"/>
</g>
<line class="st9" x1="674" y1="362.2" x2="985" y2="362.2"/>
<line class="st9" x1="1665" y1="362.2" x2="1976" y2="362.2"/>
<g>
	<path class="st8" d="M758.3,275.5c0,0.9,0,1.6-0.1,2.3c0,0.6-0.1,1.2-0.3,1.7c-0.1,0.5-0.3,0.9-0.5,1.3c-0.3,0.5-0.7,1-1.2,1.4
		c-1.1,0.9-2.2,1.8-3.5,2.5c-2.1,1.3-4.3,2.4-6.5,3.3c-2.9,1.2-5.9,2.1-9,2.7c-3.6,0.8-7.3,1.1-11.1,1.1c-6.4,0.1-12.8-1.1-18.7-3.5
		c-5.5-2.2-10.4-5.7-14.2-10.2c-4.1-4.9-7.2-10.5-9-16.6c-2.2-7.4-3.3-15.1-3.2-22.8c-0.1-8,1-16,3.4-23.6c2-6.4,5.3-12.4,9.6-17.5
		c4-4.7,9.1-8.5,14.8-11c8.8-3.7,18.6-4.7,28-2.9c2.7,0.5,5.4,1.3,8,2.2c2.3,0.8,4.5,1.8,6.6,3c1.4,0.8,2.8,1.8,4,2.8
		c0.5,0.5,1,1.1,1.4,1.7c0.2,0.4,0.4,0.9,0.5,1.4c0.2,0.6,0.3,1.2,0.3,1.9c0.1,0.8,0.1,1.7,0.1,2.6s0,1.9-0.2,2.8
		c-0.1,0.7-0.3,1.3-0.5,1.9c-0.2,0.4-0.4,0.8-0.8,1.1c-0.3,0.3-0.7,0.4-1.1,0.4c-1.2-0.2-2.3-0.8-3.2-1.6c-1.7-1.3-3.5-2.5-5.3-3.5
		c-2.5-1.4-5.2-2.6-7.9-3.5c-3.6-1.1-7.4-1.7-11.2-1.6c-4.5-0.1-8.9,0.9-12.9,2.8c-4,1.9-7.4,4.8-10,8.3c-2.9,4.1-5.1,8.6-6.4,13.4
		c-3,11.8-3,24.2-0.1,36c1.2,4.7,3.4,9.1,6.3,13c2.6,3.4,6.1,6.1,10,7.9c4.3,1.9,8.9,2.8,13.6,2.7c3.8,0.1,7.5-0.5,11.1-1.6
		c2.8-0.9,5.5-2.1,8.1-3.5c2.2-1.3,4.1-2.5,5.5-3.5c1-0.8,2.1-1.4,3.4-1.6c0.4,0,0.7,0.1,1,0.3c0.3,0.2,0.6,0.6,0.7,0.9
		c0.2,0.6,0.3,1.3,0.4,1.9C758.2,273.2,758.3,274.3,758.3,275.5z"/>
	<path class="st8" d="M856.7,285.6c0.4,0.9,0.6,1.9,0.7,2.9c0.1,0.6-0.2,1.2-0.6,1.7c-0.6,0.5-1.4,0.7-2.2,0.7
		c-1.4,0.1-2.7,0.2-4.1,0.2c-1.7,0-3,0-4.1-0.1c-0.8,0-1.6-0.2-2.3-0.4c-0.5-0.1-0.9-0.4-1.2-0.8c-0.3-0.4-0.5-0.8-0.7-1.2
		l-9.1-25.9h-44.2l-8.7,25.6c-0.2,0.5-0.4,0.9-0.7,1.3s-0.7,0.7-1.2,0.9c-0.7,0.3-1.5,0.5-2.2,0.5c-1.2,0.1-2.5,0.2-3.7,0.2
		c-1.3,0-2.6-0.1-3.9-0.2c-0.8,0-1.5-0.3-2.1-0.8c-0.4-0.4-0.6-1.1-0.6-1.7c0.1-1,0.3-2,0.7-2.9l35.7-98.8c0.2-0.6,0.5-1.1,0.8-1.5
		c0.4-0.4,1-0.7,1.6-0.9c0.9-0.2,1.7-0.4,2.6-0.4c1.1-0.1,2.4-0.1,4.1-0.1s3.2,0,4.3,0.1c0.9,0,1.9,0.2,2.8,0.4
		c0.6,0.2,1.2,0.5,1.6,0.9c0.4,0.4,0.7,1,0.9,1.5L856.7,285.6z M810.9,198.7L810.9,198.7l-18.4,53h37L810.9,198.7z"/>
	<path class="st8" d="M945.2,288c0,0.4-0.1,0.8-0.2,1.2c-0.2,0.4-0.6,0.7-1.1,0.8c-0.7,0.3-1.5,0.4-2.3,0.5
		c-1.3,0.1-2.6,0.2-3.9,0.2c-1.2,0-2.3,0-3.5-0.2c-0.7-0.1-1.5-0.3-2.2-0.5c-0.5-0.2-0.9-0.6-1.3-1c-0.3-0.5-0.6-1.1-0.8-1.6
		l-9.7-25.1c-1.1-2.9-2.3-5.5-3.5-7.9c-1.1-2.3-2.6-4.3-4.4-6.2c-1.7-1.7-3.7-3.1-5.9-4c-2.6-1-5.4-1.5-8.2-1.4H889v45.3
		c0,0.4-0.1,0.8-0.4,1.1c-0.3,0.4-0.7,0.6-1.1,0.8c-0.7,0.2-1.4,0.4-2.1,0.5c-2.2,0.3-4.5,0.3-6.8,0c-0.7-0.1-1.5-0.3-2.2-0.5
		c-0.5-0.1-0.9-0.4-1.1-0.8c-0.2-0.3-0.3-0.7-0.3-1.1v-98.6c0-2.1,0.6-3.6,1.7-4.5c1-0.8,2.2-1.3,3.5-1.3h22.4
		c2.7,0,4.9,0.1,6.6,0.2c1.8,0.1,3.3,0.3,4.8,0.4c3.7,0.6,7.4,1.7,10.8,3.4c3,1.4,5.6,3.4,7.9,5.8c2.1,2.4,3.7,5.1,4.8,8.1
		c1.1,3.2,1.6,6.7,1.6,10.1c0,3.3-0.4,6.5-1.4,9.6c-0.9,2.7-2.3,5.3-4.1,7.5s-4,4.1-6.4,5.6c-2.6,1.6-5.4,3-8.4,4
		c1.7,0.8,3.3,1.7,4.7,2.9c1.5,1.3,2.8,2.7,4,4.2c1.3,1.8,2.5,3.7,3.5,5.7c1.1,2.1,2.2,4.6,3.3,7.2l9.4,23.5c0.8,2,1.3,3.4,1.5,4.2
		C945.1,286.8,945.2,287.4,945.2,288z M924.7,213.6c0.1-3.7-0.9-7.4-2.8-10.6c-1.9-2.9-5-5-9.4-6.2c-1.5-0.4-3.1-0.7-4.7-0.8
		c-1.7-0.2-4-0.3-6.8-0.3h-12v36h13.9c3.3,0.1,6.6-0.4,9.7-1.4c2.5-0.8,4.8-2.1,6.8-3.8c1.8-1.6,3.1-3.5,4-5.7
		C924.3,218.5,924.7,216.1,924.7,213.6z"/>
	<path class="st8" d="M980,287.9c0,0.4-0.1,0.8-0.3,1.1c-0.3,0.4-0.7,0.7-1.1,0.8c-0.7,0.2-1.4,0.4-2.2,0.5c-2.2,0.3-4.5,0.3-6.7,0
		c-0.7-0.1-1.5-0.3-2.2-0.5c-0.5-0.1-0.9-0.4-1.1-0.8c-0.2-0.3-0.3-0.7-0.3-1.1V186.8c0-0.4,0.1-0.8,0.4-1.1
		c0.3-0.4,0.7-0.6,1.2-0.8c0.7-0.2,1.4-0.4,2.2-0.5c1.1-0.2,2.1-0.2,3.2-0.2c1.1,0,2.3,0.1,3.4,0.2c0.7,0.1,1.4,0.3,2.2,0.5
		c0.5,0.1,0.9,0.4,1.1,0.8c0.2,0.3,0.3,0.7,0.3,1.1L980,287.9z"/>
	<path class="st8" d="M1077.9,260.3c0,3.1-0.4,6.2-1.3,9.2c-0.8,2.7-2,5.3-3.6,7.6c-1.5,2.2-3.4,4.2-5.5,5.9
		c-2.2,1.7-4.7,3.2-7.3,4.3c-2.8,1.2-5.7,2-8.7,2.6c-3.5,0.6-7.1,0.9-10.6,0.9h-27.7c-1.3,0-2.5-0.5-3.6-1.3
		c-1.1-0.9-1.7-2.3-1.7-4.5v-94.5c0-2.1,0.6-3.6,1.7-4.5c1-0.8,2.3-1.3,3.6-1.3h24.1c5.2-0.1,10.5,0.5,15.6,1.8
		c3.7,1,7.1,2.8,10.1,5.2c2.7,2.3,4.8,5.2,6.1,8.4c1.4,3.6,2.1,7.4,2.1,11.3c0,2.4-0.3,4.9-0.9,7.2c-0.6,2.2-1.5,4.4-2.7,6.3
		c-1.2,2-2.7,3.7-4.4,5.2c-1.8,1.6-3.9,2.8-6.1,3.8c2.9,0.5,5.6,1.6,8.1,3s4.7,3.3,6.6,5.5c1.9,2.3,3.5,5,4.5,7.9
		C1077.4,253.6,1077.9,256.9,1077.9,260.3z M1056.3,212.2c0-2.3-0.3-4.7-1.1-6.9c-0.7-2-1.8-3.8-3.3-5.2c-1.7-1.5-3.7-2.7-5.9-3.3
		c-3.1-0.8-6.4-1.2-9.6-1.1H1022v34h15.9c3,0.1,5.9-0.4,8.7-1.4c2.1-0.9,4-2.2,5.5-3.8s2.5-3.5,3.2-5.6
		C1056,216.7,1056.3,214.5,1056.3,212.2z M1062.6,260.9c0.1-2.8-0.5-5.6-1.5-8.3c-1-2.3-2.5-4.4-4.4-6c-2.1-1.7-4.6-3-7.2-3.7
		c-3.6-0.9-7.2-1.3-10.9-1.3H1022v37h20.3c2.8,0.1,5.6-0.3,8.3-1.1c2.3-0.7,4.4-1.8,6.3-3.4c1.8-1.5,3.3-3.4,4.3-5.6
		C1062.2,266.2,1062.7,263.6,1062.6,260.9L1062.6,260.9z"/>
	<path class="st8" d="M1158.6,284.7c0,0.9-0.1,1.8-0.2,2.6c-0.1,0.7-0.3,1.3-0.6,1.9c-0.2,0.4-0.5,0.8-0.9,1.1
		c-0.4,0.2-0.8,0.3-1.2,0.3h-50.6c-1.3,0-2.5-0.5-3.5-1.3c-1.1-0.9-1.7-2.4-1.7-4.6v-95.3c0-2.2,0.6-3.7,1.7-4.6
		c1-0.8,2.2-1.3,3.5-1.3h50c0.4,0,0.8,0.1,1.2,0.3c0.4,0.3,0.7,0.6,0.8,1.1c0.3,0.6,0.4,1.2,0.5,1.9c0.2,0.9,0.2,1.9,0.2,2.8
		c0,0.9-0.1,1.8-0.2,2.6c-0.1,0.6-0.3,1.3-0.5,1.9c-0.2,0.4-0.5,0.8-0.8,1c-0.4,0.2-0.8,0.3-1.2,0.3H1114v34h34.3
		c0.3,0,0.5,0,0.8,0.1c0.5,0.3,1,0.7,1.3,1.2s0.5,1.1,0.5,1.7c0.1,0.9,0.2,1.7,0.2,2.6c0,0.8,0,1.6-0.2,2.4
		c-0.1,0.6-0.2,1.1-0.5,1.7c-0.2,0.4-0.5,0.7-0.9,0.9c-0.3,0.2-0.7,0.3-1.1,0.3H1114v38h41.8c0.4,0,0.8,0.1,1.2,0.3
		c0.4,0.3,0.7,0.6,0.9,1c0.3,0.6,0.5,1.2,0.6,1.9C1158.6,282.8,1158.6,283.8,1158.6,284.7z"/>
	<path class="st8" d="M1260,285.6c0.4,0.9,0.6,1.9,0.7,2.9c0,0.6-0.2,1.2-0.7,1.7c-0.6,0.5-1.4,0.7-2.2,0.7
		c-1.4,0.1-2.7,0.2-4.1,0.2c-1.7,0-3.1,0-4.1-0.1c-0.8,0-1.6-0.2-2.3-0.4c-0.5-0.1-0.9-0.4-1.2-0.8c-0.3-0.4-0.5-0.8-0.7-1.2
		l-9.1-25.9h-44.2l-8.7,25.6c-0.1,0.5-0.4,0.9-0.7,1.3c-0.3,0.4-0.7,0.7-1.2,0.9c-0.7,0.3-1.5,0.5-2.2,0.5c-1.2,0.1-2.5,0.2-3.7,0.2
		c-1.3,0-2.6-0.1-3.9-0.2c-0.8,0-1.5-0.3-2.1-0.8c-0.4-0.4-0.7-1.1-0.6-1.7c0.1-1,0.3-2,0.7-2.9l35.7-98.8c0.2-0.5,0.5-1,0.9-1.5
		c0.4-0.4,1-0.7,1.6-0.9c0.9-0.3,1.7-0.4,2.6-0.4c1.1-0.1,2.4-0.1,4.1-0.1s3.2,0,4.4,0.1c0.9,0,1.9,0.2,2.8,0.4
		c0.6,0.2,1.2,0.5,1.7,0.9c0.4,0.4,0.7,1,0.9,1.5L1260,285.6z M1214.2,198.7L1214.2,198.7l-18.4,53h37L1214.2,198.7z"/>
	<path class="st8" d="M1358,284.8c0,0.9-0.2,1.9-0.6,2.7c-0.3,0.7-0.8,1.3-1.4,1.9c-0.6,0.5-1.3,0.8-2,1s-1.4,0.3-2.2,0.3h-4.4
		c-1.3,0-2.6-0.1-3.9-0.5c-1.2-0.3-2.2-0.9-3.2-1.6c-1.1-0.9-2.2-2-3-3.3c-1.2-1.7-2.2-3.4-3.2-5.3l-32.5-60.6
		c-1.7-3.1-3.4-6.4-5.1-9.8s-3.3-6.8-4.8-10h-0.2c0.1,4,0.2,8,0.3,12.1c0.1,4.1,0.1,8.2,0.1,12.3v64.7c0,0.4-0.1,0.8-0.3,1.1
		c-0.3,0.4-0.7,0.7-1.2,0.8c-0.7,0.2-1.4,0.4-2.2,0.5c-2.3,0.3-4.5,0.3-6.8,0c-0.7-0.1-1.4-0.3-2.1-0.5c-0.5-0.1-0.8-0.4-1.1-0.8
		c-0.2-0.3-0.3-0.7-0.3-1.1v-98c0-2.2,0.6-3.7,1.8-4.7c1.1-0.9,2.5-1.4,4-1.4h6.9c1.4,0,2.7,0.1,4.1,0.4c1.1,0.3,2.1,0.7,2.9,1.4
		c1,0.7,1.8,1.6,2.5,2.6c0.9,1.3,1.8,2.8,2.6,4.2l24.7,46.6c1.5,2.8,3,5.6,4.4,8.3s2.8,5.4,4.1,8c1.3,2.6,2.6,5.2,3.9,7.8
		s2.6,5.1,3.8,7.7h0.5c-0.1-4.2-0.2-8.6-0.2-13.2c0-4.6,0-9,0-13.2V189c0-0.4,0.1-0.7,0.3-1c0.3-0.4,0.7-0.7,1.2-0.8
		c0.7-0.3,1.4-0.5,2.2-0.5c1.2-0.1,2.3-0.2,3.5-0.2c1.1,0,2.2,0,3.3,0.2c0.7,0.1,1.5,0.2,2.2,0.5c0.4,0.2,0.8,0.5,1.1,0.8
		c0.2,0.3,0.3,0.6,0.3,1L1358,284.8z"/>
	<path class="st8" d="M1481.6,260.7c0.1,4.6-0.9,9.1-2.8,13.3c-1.8,3.8-4.4,7.2-7.6,9.9c-3.4,2.8-7.3,4.9-11.5,6.1
		c-4.6,1.4-9.4,2.1-14.3,2.1c-3.3,0-6.6-0.3-9.9-0.9c-2.8-0.5-5.5-1.3-8.1-2.2c-2.1-0.7-4.1-1.6-6-2.7c-1.2-0.6-2.4-1.4-3.4-2.4
		c-0.7-0.7-1.1-1.6-1.4-2.5c-0.3-1.3-0.5-2.7-0.5-4.1c0-1,0-2,0.2-3c0.1-0.7,0.2-1.3,0.5-1.9c0.3-0.8,1.1-1.4,2-1.3
		c1.2,0.2,2.3,0.7,3.2,1.4c4.1,2.7,8.6,4.7,13.3,6.1c3.5,1,7.1,1.5,10.7,1.4c2.9,0,5.7-0.4,8.4-1.2c2.4-0.7,4.6-1.9,6.6-3.5
		c1.8-1.5,3.3-3.4,4.2-5.6c1-2.4,1.5-4.9,1.5-7.5c0.1-2.7-0.6-5.4-2.1-7.7c-1.4-2.2-3.3-4.1-5.4-5.6c-2.4-1.7-5-3.2-7.7-4.4
		l-8.8-4.1c-3-1.4-5.9-2.9-8.8-4.6c-2.8-1.7-5.4-3.7-7.7-6c-2.3-2.4-4.1-5.1-5.5-8.1c-1.5-3.5-2.2-7.3-2.1-11.1
		c-0.1-4.1,0.8-8.1,2.4-11.9c1.6-3.4,3.9-6.4,6.7-8.8c3-2.4,6.5-4.3,10.3-5.4c4.2-1.3,8.5-1.9,12.9-1.9c2.4,0,4.8,0.2,7.1,0.6
		c2.3,0.4,4.5,0.9,6.7,1.6c1.9,0.6,3.8,1.4,5.6,2.3c1.2,0.5,2.3,1.2,3.3,2.1c0.4,0.4,0.7,0.8,1,1.2c0.2,0.4,0.3,0.8,0.4,1.2
		c0.1,0.6,0.2,1.1,0.3,1.7c0,0.7,0.1,1.5,0.1,2.6c0,0.9,0,1.8-0.1,2.6c-0.1,0.7-0.2,1.3-0.4,1.9c-0.1,0.4-0.4,0.8-0.7,1.1
		c-0.3,0.2-0.6,0.4-1,0.4c-1-0.2-2-0.5-2.8-1.1c-1.3-0.8-2.9-1.6-4.7-2.6c-2.1-1.1-4.3-1.9-6.6-2.6c-2.8-0.8-5.7-1.2-8.6-1.2
		c-2.6-0.1-5.2,0.4-7.7,1.2c-2,0.7-3.8,1.8-5.4,3.2c-1.4,1.3-2.5,2.9-3.2,4.7c-0.7,1.8-1.1,3.8-1.1,5.8c-0.1,2.7,0.6,5.4,2.1,7.6
		c1.5,2.2,3.3,4.1,5.5,5.7c2.4,1.7,5,3.3,7.8,4.5c2.9,1.4,5.9,2.8,8.9,4.1c3,1.4,6,2.9,8.9,4.6c2.8,1.6,5.5,3.6,7.8,5.9
		C1479.1,246.7,1481.8,253.6,1481.6,260.7L1481.6,260.7z"/>
	<path class="st8" d="M1560.6,284.7c0,0.9-0.1,1.8-0.2,2.6c-0.1,0.7-0.3,1.3-0.6,1.9c-0.2,0.4-0.5,0.8-0.9,1.1
		c-0.4,0.2-0.8,0.3-1.2,0.3h-50.6c-1.3,0-2.5-0.5-3.5-1.3c-1.1-0.9-1.7-2.4-1.7-4.6v-95.3c0-2.2,0.6-3.7,1.7-4.6
		c1-0.8,2.2-1.3,3.5-1.3h50c0.4,0,0.8,0.1,1.2,0.3c0.4,0.3,0.7,0.6,0.8,1.1c0.3,0.6,0.4,1.2,0.5,1.9c0.2,0.9,0.2,1.9,0.2,2.8
		c0,0.9-0.1,1.8-0.2,2.6c-0.1,0.6-0.3,1.3-0.5,1.9c-0.2,0.4-0.5,0.8-0.8,1c-0.4,0.2-0.8,0.3-1.2,0.3H1516v34h34.3
		c0.3,0,0.5,0,0.8,0.1c0.5,0.3,1,0.7,1.3,1.2s0.5,1.1,0.5,1.7c0.1,0.9,0.2,1.7,0.2,2.6c0,0.8,0,1.6-0.2,2.4
		c-0.1,0.6-0.2,1.1-0.5,1.7c-0.2,0.4-0.5,0.7-0.9,0.9c-0.3,0.2-0.7,0.3-1.1,0.3H1516v38h41.8c0.4,0,0.8,0.1,1.2,0.3
		c0.4,0.3,0.7,0.6,0.9,1c0.3,0.6,0.5,1.2,0.6,1.9C1560.6,282.8,1560.6,283.8,1560.6,284.7z"/>
	<path class="st8" d="M1654.3,288c0,0.4-0.1,0.8-0.3,1.2c-0.2,0.4-0.6,0.7-1,0.8c-0.7,0.3-1.5,0.4-2.3,0.5c-1.3,0.1-2.6,0.2-3.9,0.2
		c-1.2,0-2.3,0-3.5-0.2c-0.7-0.1-1.5-0.3-2.2-0.5c-0.5-0.2-0.9-0.6-1.3-1c-0.3-0.5-0.6-1.1-0.8-1.6l-9.7-25.1
		c-1.1-2.9-2.3-5.5-3.5-7.9c-1.1-2.3-2.6-4.3-4.4-6.2c-1.7-1.7-3.7-3.1-5.9-4c-2.6-1-5.4-1.5-8.2-1.4h-9.4v45.3
		c0,0.4-0.1,0.8-0.4,1.1c-0.3,0.4-0.7,0.6-1.1,0.8c-0.7,0.2-1.4,0.4-2.1,0.5c-2.2,0.3-4.5,0.3-6.8,0c-0.7-0.1-1.5-0.3-2.2-0.5
		c-0.5-0.1-0.9-0.4-1.1-0.8c-0.2-0.3-0.3-0.7-0.3-1.1v-98.7c0-2.1,0.6-3.6,1.7-4.5c1-0.8,2.2-1.3,3.5-1.3h22.4
		c2.7,0,4.9,0.1,6.6,0.2c1.8,0.1,3.3,0.3,4.8,0.4c3.7,0.6,7.4,1.7,10.8,3.4c3,1.4,5.6,3.4,7.8,5.8c2.1,2.4,3.7,5.1,4.8,8.1
		c2.1,6.4,2.1,13.2,0.2,19.7c-0.9,2.7-2.3,5.3-4.1,7.5c-1.8,2.2-4,4.1-6.4,5.6c-2.6,1.6-5.4,3-8.4,4c1.7,0.8,3.3,1.7,4.7,2.9
		c1.5,1.3,2.8,2.7,4,4.2c1.3,1.8,2.5,3.7,3.5,5.7c1.1,2.1,2.2,4.6,3.3,7.2l9.4,23.4c0.8,2,1.2,3.4,1.5,4.2
		C1654.1,286.8,1654.2,287.4,1654.3,288z M1633.7,213.6c0.1-3.7-0.9-7.4-2.8-10.6c-1.9-2.9-5-5-9.4-6.2c-1.5-0.4-3.1-0.7-4.7-0.8
		c-1.7-0.2-4-0.3-6.8-0.3h-12v36h13.9c3.3,0.1,6.6-0.4,9.7-1.4c2.5-0.8,4.8-2.1,6.8-3.8c1.8-1.6,3.1-3.5,4-5.7
		C1633.2,218.5,1633.7,216.1,1633.7,213.6L1633.7,213.6z"/>
	<path class="st8" d="M1716.2,287.8c-0.2,0.6-0.5,1.1-0.9,1.5c-0.5,0.4-1,0.7-1.6,0.9c-0.9,0.2-1.7,0.4-2.6,0.5
		c-1.1,0.1-2.4,0.1-4,0.1c-1.2,0-2.3,0-3.2,0c-1.4,0-2.7-0.2-4-0.6c-0.4-0.1-0.8-0.3-1.2-0.5c-0.3-0.2-0.6-0.5-0.8-0.8
		c-0.2-0.4-0.4-0.7-0.5-1.1l-34.8-98.8c-0.4-0.9-0.6-1.9-0.7-2.9c-0.1-0.6,0.2-1.3,0.7-1.7c0.7-0.5,1.5-0.7,2.4-0.7
		c1.1-0.1,2.6-0.2,4.4-0.2c1.5,0,2.8,0,3.7,0.1c0.7,0,1.4,0.2,2.1,0.5c0.4,0.2,0.8,0.5,1.1,0.9c0.3,0.4,0.5,0.9,0.7,1.4l30.5,89.5
		h0.1l29.7-89.4c0.1-0.5,0.3-1,0.6-1.5c0.3-0.4,0.7-0.7,1.2-0.9c0.7-0.3,1.5-0.4,2.3-0.5c1-0.1,2.3-0.1,4-0.1c1.3,0,2.7,0.1,4,0.2
		c0.7,0,1.4,0.3,2,0.8c0.4,0.5,0.5,1.1,0.4,1.7c-0.1,1-0.4,2-0.8,2.9L1716.2,287.8z"/>
	<path class="st8" d="M1783,287.9c0,0.4-0.1,0.8-0.3,1.1c-0.3,0.4-0.7,0.6-1.1,0.8c-0.7,0.2-1.4,0.4-2.2,0.5c-2.2,0.3-4.5,0.3-6.7,0
		c-0.7-0.1-1.5-0.3-2.2-0.5c-0.5-0.1-0.9-0.4-1.1-0.8c-0.2-0.3-0.3-0.7-0.3-1.1V186.8c0-0.4,0.1-0.8,0.4-1.1
		c0.3-0.4,0.7-0.6,1.2-0.8c0.7-0.2,1.5-0.4,2.2-0.5c1.1-0.1,2.1-0.2,3.2-0.2s2.3,0,3.4,0.2c0.7,0.1,1.5,0.3,2.2,0.5
		c0.5,0.1,0.9,0.4,1.1,0.8c0.2,0.3,0.3,0.7,0.3,1.1L1783,287.9L1783,287.9z"/>
	<path class="st8" d="M1882.2,275.5c0,0.9,0,1.6-0.1,2.3c0,0.6-0.1,1.2-0.3,1.7c-0.1,0.5-0.3,0.9-0.5,1.3c-0.3,0.5-0.7,1-1.2,1.4
		c-1.1,0.9-2.2,1.8-3.4,2.5c-2.1,1.3-4.3,2.4-6.5,3.3c-2.9,1.2-5.9,2.1-9,2.7c-3.6,0.8-7.3,1.1-11.1,1.1c-6.4,0.1-12.8-1.1-18.7-3.5
		c-5.5-2.2-10.3-5.7-14.2-10.2c-4.1-4.9-7.2-10.5-9-16.6c-2.2-7.4-3.3-15.1-3.2-22.8c-0.1-8,1-16,3.4-23.6c2-6.4,5.3-12.4,9.6-17.5
		c4-4.7,9.1-8.5,14.8-11c8.8-3.7,18.6-4.7,28-2.9c2.7,0.5,5.4,1.3,8.1,2.2c2.3,0.8,4.5,1.8,6.6,3c1.4,0.8,2.8,1.8,4,2.8
		c0.5,0.5,1,1.1,1.4,1.7c0.2,0.4,0.4,0.9,0.5,1.4c0.1,0.6,0.3,1.2,0.3,1.9c0.1,0.8,0.1,1.7,0.1,2.6s0,1.9-0.2,2.8
		c-0.1,0.7-0.2,1.3-0.5,1.9c-0.2,0.4-0.4,0.8-0.8,1.1c-0.3,0.3-0.7,0.4-1.1,0.4c-1.2-0.2-2.3-0.8-3.2-1.6c-1.7-1.3-3.5-2.5-5.3-3.5
		c-2.5-1.4-5.2-2.6-7.9-3.5c-3.6-1.1-7.4-1.7-11.2-1.6c-4.5-0.1-8.9,0.9-12.9,2.8c-4,1.9-7.4,4.8-10,8.3c-2.9,4.1-5.1,8.6-6.4,13.4
		c-3,11.8-3,24.2-0.1,36c1.2,4.7,3.4,9.1,6.3,13c2.6,3.4,6.1,6.1,10,7.9c4.2,1.8,8.8,2.7,13.5,2.7c3.8,0.1,7.5-0.5,11.1-1.6
		c2.8-0.9,5.5-2.1,8.1-3.5c1.9-1.1,3.7-2.2,5.5-3.5c1-0.8,2.1-1.4,3.4-1.6c0.4,0,0.7,0.1,1,0.3c0.3,0.2,0.6,0.6,0.7,0.9
		c0.2,0.6,0.3,1.3,0.4,1.9C1882.1,273.4,1882.2,274.5,1882.2,275.5z"/>
	<path class="st8" d="M1959.6,284.7c0,0.9-0.1,1.8-0.2,2.6c-0.1,0.7-0.3,1.3-0.6,1.9c-0.2,0.4-0.5,0.8-0.9,1.1
		c-0.4,0.2-0.8,0.3-1.2,0.3h-50.6c-1.3,0-2.5-0.5-3.5-1.3c-1.1-0.9-1.7-2.4-1.7-4.6v-95.3c0-2.2,0.6-3.7,1.7-4.6
		c1-0.8,2.2-1.3,3.5-1.3h50c0.4,0,0.8,0.1,1.2,0.3c0.4,0.3,0.7,0.6,0.8,1.1c0.3,0.6,0.4,1.2,0.5,1.9c0.2,0.9,0.2,1.9,0.2,2.8
		c0,0.9-0.1,1.8-0.2,2.6c-0.1,0.6-0.3,1.3-0.5,1.9c-0.2,0.4-0.5,0.8-0.8,1c-0.4,0.2-0.8,0.3-1.2,0.3H1915v34h34.3
		c0.3,0,0.5,0,0.8,0.1c0.5,0.3,1,0.7,1.3,1.2s0.5,1.1,0.5,1.7c0.1,0.9,0.2,1.7,0.2,2.6c0,0.8,0,1.6-0.2,2.4
		c-0.1,0.6-0.2,1.1-0.5,1.7c-0.2,0.4-0.5,0.7-0.9,0.9c-0.3,0.2-0.7,0.3-1.1,0.3H1915v38h41.8c0.4,0,0.8,0.1,1.2,0.3
		c0.4,0.3,0.7,0.6,0.9,1c0.3,0.6,0.5,1.2,0.6,1.9C1959.6,282.8,1959.6,283.8,1959.6,284.7z"/>
</g>
</svg>
