<?xml version="1.0" encoding="utf-8"?>
<!-- Generator: Adobe Illustrator 22.1.0, SVG Export Plug-In . SVG Version: 6.00 Build 0)  -->
<svg version="1.1" id="Capa_1" xmlns="http://www.w3.org/2000/svg" xmlns:xlink="http://www.w3.org/1999/xlink" x="0px" y="0px"
	 viewBox="0 0 1976 540.1" style="enable-background:new 0 0 1976 540.1;" xml:space="preserve">
<style type="text/css">
	.st0{fill:#FFDD0F;}
	.st1{fill:#F09300;}
	.st2{fill:#BD1522;}
	.st3{fill:#CF1E20;}
	.st4{fill:#FAB234;}
	.st5{fill:#EB6E04;}
	.st6{fill:#1F8BB9;}
	.st7{fill:#2DAAE2;}
	.st8{fill:#143D62;}
	.st9{fill:none;stroke:#143D62;stroke-width:5;stroke-miterlimit:10;}
	.st10{enable-background:new    ;}
	.st11{fill:#002068;}
</style>
<title>logo_horizontal</title>
<ellipse class="st0" cx="149.1" cy="183.6" rx="132.8" ry="136.4"/>
<polygon class="st1" points="200,121.8 414.6,107.2 391,434.5 236.4,434.5 "/>
<polygon class="st2" points="141.8,436.4 120,194.5 281.9,205.4 281.9,443.6 "/>
<polygon class="st3" points="210.9,200 281.9,203.6 281.9,443.6 240,443.6 "/>
<polygon class="st4" points="354.6,180 545.5,154.5 529.2,427.3 354.6,436.4 "/>
<polygon class="st5" points="354.6,180 407.4,172.7 389.2,434.5 354.6,434.5 "/>
<path class="st6" d="M640.7,475.7c-20.9,4.6-308.1,64-640.7-62.1c0,0,197.2,27.5,378.2,18.4C397.3,444.5,470,482.1,640.7,475.7z"/>
<path class="st7" d="M641.9,360.9v114.6l-1.2,0.3C470,482.1,397.3,444.5,378.2,432C488,426.5,591.8,407.6,641.9,360.9z"/>
<g>
	<g>
		<g>
			<path class="st8" d="M1037,325.6c0,0.3-0.1,0.5-0.2,0.7c-0.2,0.2-0.4,0.4-0.7,0.5c-0.5,0.1-0.9,0.3-1.4,0.3
				c-0.7,0.1-1.4,0.1-2.2,0.1c-0.7,0-1.4,0-2.2-0.1c-0.5-0.1-1-0.2-1.4-0.3c-0.3-0.1-0.5-0.3-0.7-0.5c-0.1-0.2-0.2-0.5-0.2-0.7v-65
				c0-0.3,0.1-0.5,0.2-0.7c0.2-0.2,0.5-0.4,0.8-0.5c0.5-0.1,0.9-0.2,1.4-0.3c0.7-0.1,1.4-0.1,2.1-0.1s1.5,0,2.2,0.1
				c0.5,0.1,0.9,0.2,1.4,0.3c0.3,0.1,0.5,0.3,0.7,0.5c0.1,0.2,0.2,0.5,0.2,0.7L1037,325.6L1037,325.6z"/>
			<path class="st8" d="M1105,322.7c-0.3,0.7-0.4,1.3-0.6,1.8s-0.5,0.9-0.9,1.2c-0.4,0.3-0.8,0.5-1.3,0.7l-1.4,0.4h-3.1
				c-0.8,0-1.6-0.1-2.4-0.3c-0.7-0.2-1.4-0.5-2-1c-0.7-0.6-1.3-1.3-1.9-2c-0.7-1.1-1.4-2.2-2-3.3l-20.3-37.9c-1.1-2-2.1-4-3.2-6.2
				s-2.1-4.2-3-6.3h-0.1c0.1,2.5,0.1,5,0.2,7.6c0,2.6,0,5.1,0,7.7v39.3c0,0.2-0.1,0.5-0.2,0.7c-0.2,0.2-0.4,0.4-0.8,0.5
				c-0.5,0.1-0.9,0.2-1.4,0.3c-1.4,0.2-2.9,0.2-4.4,0c-0.5-0.1-0.9-0.2-1.3-0.3c-0.3-0.1-0.5-0.3-0.7-0.5c-0.1-0.2-0.2-0.4-0.2-0.7
				v-60.9c-0.1-1.1,0.3-2.2,1.2-2.9c0.7-0.6,1.7-0.9,2.6-0.9h4.4c0.9,0,1.8,0.1,2.6,0.3c0.7,0.2,1.3,0.5,1.9,0.9
				c0.6,0.5,1.2,1,1.6,1.6c0.6,0.8,1.2,1.7,1.6,2.6l15.9,28.9c1,1.8,1.9,3.5,2.8,5.2s1.8,3.3,2.6,5s1.7,3.2,2.5,4.8s1.6,3.2,2.4,4.8
				h-0.2c0,0-0.1-4.9-0.1-7.8s0-5.7,0.1-8.5v-36.1c-0.1-0.2-0.1-0.5,0.1-0.7s0.4-0.4,0.7-0.5c0.4-0.2,0.9-0.3,1.4-0.3
				c0.7-0.1,1.5-0.1,2.2-0.1s1.4,0,2.1,0.1c0.5,0,0.9,0.2,1.3,0.3c0.3,0.1,0.5,0.3,0.7,0.5c0.1,0.2,0.3,0.5,0.5,0.7L1105,322.7z"/>
			<path class="st8" d="M1195,325.4c0,0.3-0.1,0.5-0.2,0.7c-0.2,0.2-0.5,0.4-0.8,0.5c-0.5,0.1-0.9,0.2-1.4,0.3
				c-0.7,0.1-1.5,0.1-2.2,0.1s-1.4,0-2.1-0.1c-0.5-0.1-0.9-0.2-1.4-0.3c-0.3-0.1-0.5-0.3-0.7-0.5c-0.1-0.2-0.2-0.5-0.2-0.7v-58.7
				h0.5l-23.9,56.2c-0.1,0.2-0.3,0.4-0.4,0.6c-0.2,0.2-0.5,0.3-0.8,0.4c-0.4,0.1-0.9,0.2-1.3,0.2c-0.5,0-1.1,0.1-1.8,0.1
				c-0.6,0-1.3,0-1.9-0.1c-0.4-0.1-0.9-0.1-1.3-0.3c-0.3-0.1-0.6-0.2-0.8-0.4c-0.2-0.1-0.3-0.3-0.4-0.5l-22.8-56.2l0,0v56
				c0,0.2-0.1,0.5-0.2,0.7c-0.2,0.2-0.5,0.4-0.8,0.5c-0.5,0.1-0.9,0.2-1.4,0.3c-0.7,0.1-1.5,0.1-2.2,0.1s-1.4,0-2.2-0.1
				c-0.5-0.1-0.9-0.2-1.4-0.3c-0.3-0.1-0.5-0.2-0.7-0.5c-0.1-0.2-0.2-0.4-0.2-0.7v-59.1c-0.1-1.1,0.3-2.2,1.2-3
				c0.7-0.6,1.7-0.9,2.6-0.9h4.9c1,0,2,0.1,3,0.3c0.8,0.2,1.6,0.5,2.2,1s1.2,1,1.6,1.7c0.5,0.8,0.8,1.6,1.1,2.4l19.3,48.6h0.3
				l20.1-48.4c0.3-0.9,0.8-1.8,1.3-2.6c0.4-0.7,0.9-1.2,1.5-1.7c0.5-0.4,1.2-0.7,1.8-0.9c0.8-0.2,1.5-0.3,2.3-0.3h5.8
				c0.5,0,1,0.1,1.5,0.2s0.9,0.4,1.2,0.7c0.4,0.4,0.6,0.8,0.8,1.2c0.2,0.6,0.3,1.2,0.3,1.8L1195,325.4z"/>
			<path class="st8" d="M1268,292.4c0.1,4.9-0.6,9.8-1.9,14.5c-1.1,4-3,7.8-5.7,11c-2.6,3.1-5.8,5.5-9.5,7
				c-4.2,1.7-8.7,2.5-13.3,2.4c-4.4,0.1-8.9-0.7-13-2.2c-3.5-1.4-6.6-3.6-9-6.5c-2.5-3.1-4.3-6.7-5.3-10.6
				c-1.2-4.7-1.8-9.6-1.8-14.5c-0.1-4.8,0.6-9.6,1.9-14.3c1.1-4,3.1-7.7,5.7-10.9c2.6-3,5.8-5.4,9.5-6.9c4.2-1.7,8.7-2.5,13.3-2.4
				c4.4-0.1,8.7,0.7,12.8,2.2c3.5,1.4,6.6,3.6,9.1,6.4c2.5,3.1,4.4,6.6,5.4,10.5C1267.5,282.7,1268.1,287.5,1268,292.4z M1258.7,293
				c0-3.5-0.3-7-1-10.5c-0.6-3-1.7-5.9-3.3-8.4c-1.6-2.4-3.7-4.3-6.2-5.6c-3-1.4-6.3-2.1-9.6-2c-3.3-0.1-6.7,0.6-9.6,2.1
				c-2.5,1.4-4.7,3.4-6.3,5.8c-1.7,2.5-2.9,5.4-3.5,8.4c-0.7,3.3-1,6.7-1,10.1c0,3.6,0.3,7.2,1,10.8c0.5,3,1.7,5.9,3.3,8.5
				c1.5,2.4,3.7,4.3,6.2,5.5c3,1.4,6.4,2.1,9.7,2c3.4,0.1,6.7-0.6,9.7-2.1c2.6-1.4,4.8-3.4,6.4-5.8c1.7-2.6,2.8-5.5,3.4-8.5
				C1258.4,299.8,1258.7,296.4,1258.7,293L1258.7,293z"/>
			<path class="st8" d="M1325.5,306.8c0,1.9-0.3,3.9-0.8,5.7c-0.5,1.7-1.2,3.3-2.2,4.7c-1,1.4-2.1,2.6-3.4,3.7
				c-1.4,1.1-2.9,2-4.5,2.6c-1.7,0.7-3.5,1.3-5.4,1.6c-2.2,0.4-4.4,0.6-6.6,0.5h-17.2c-0.8,0-1.6-0.3-2.2-0.8
				c-0.8-0.7-1.1-1.7-1-2.8v-58.9c-0.1-1,0.2-2.1,1-2.8c0.6-0.5,1.4-0.8,2.2-0.8h15c3.3-0.1,6.5,0.3,9.7,1.1
				c2.3,0.6,4.5,1.8,6.3,3.3c1.7,1.4,3,3.2,3.8,5.3c0.9,2.2,1.3,4.6,1.3,7c0,1.5-0.2,3-0.6,4.5c-0.4,1.4-0.9,2.8-1.7,4
				c-0.7,1.2-1.7,2.3-2.8,3.2c-1.1,1-2.4,1.8-3.8,2.4c1.8,0.3,3.5,1,5,1.9c1.6,0.9,2.9,2.1,4.1,3.4c1.2,1.5,2.1,3.1,2.8,4.9
				C1325.2,302.6,1325.5,304.7,1325.5,306.8z M1313.2,277.4c0-1.5-0.2-3-0.7-4.5c-0.4-1.3-1.2-2.5-2.2-3.4c-1.1-1-2.4-1.7-3.8-2.1
				c-2-0.5-4.1-0.8-6.2-0.7h-9.3v22h10.3c1.9,0.1,3.8-0.2,5.7-0.9c1.4-0.6,2.6-1.4,3.6-2.5c0.9-1,1.6-2.3,2.1-3.6
				C1313,280.3,1313.2,278.9,1313.2,277.4z M1316.3,307.6c0-1.8-0.3-3.5-0.9-5.1c-0.6-1.4-1.5-2.7-2.7-3.7c-1.3-1.1-2.8-1.9-4.5-2.3
				c-2.2-0.6-4.5-0.8-6.8-0.8H1291v23h12.6c1.8,0,3.5-0.2,5.2-0.7c1.4-0.4,2.7-1.1,3.9-2.1c1.1-0.9,2-2.1,2.6-3.5
				C1316,310.9,1316.3,309.3,1316.3,307.6z"/>
			<path class="st8" d="M1348,325.6c0,0.3-0.1,0.5-0.2,0.7c-0.2,0.2-0.4,0.4-0.7,0.5c-0.5,0.2-0.9,0.3-1.4,0.3
				c-0.7,0.1-1.4,0.1-2.2,0.1c-0.7,0-1.4,0-2.2-0.1c-0.5-0.1-1-0.2-1.4-0.3c-0.3-0.1-0.5-0.3-0.7-0.5c-0.1-0.2-0.2-0.5-0.2-0.7v-65
				c0-0.3,0.1-0.5,0.2-0.7c0.2-0.2,0.5-0.4,0.8-0.5c0.5-0.1,0.9-0.2,1.4-0.3c0.7-0.1,1.4-0.1,2.1-0.1s1.5,0,2.2,0.1
				c0.5,0.1,0.9,0.2,1.4,0.3c0.3,0.1,0.5,0.3,0.7,0.5c0.1,0.2,0.2,0.5,0.2,0.7L1348,325.6L1348,325.6z"/>
			<path class="st8" d="M1400.1,322.5c0,0.6,0,1.1-0.1,1.7c0,0.4-0.2,0.8-0.3,1.2c-0.1,0.3-0.3,0.5-0.6,0.7
				c-0.3,0.1-0.6,0.3-0.8,0.6h-29.4c-0.8-0.3-1.5-0.7-2.2-1.1c-0.8-0.7-1.1-1.8-0.7-2.8v-61.5c-0.4-0.3-0.3-0.5-0.2-0.7
				c0.2-0.2,0.4-0.4,0.7-0.5c0.5-0.1,0.9-0.2,1.4-0.3c0.7-0.1,1.4-0.1,2.1-0.1s1.4,0,2.1,0.1c0.5,0.1,0.9,0.2,1.4,0.3
				c0.3,0.1,0.5,0.3,0.7,0.5c0.2,0.3,0.4,0.6,0.8,0.7v57.5h23.3c0.3,0,0.6,0.1,0.8,0.2c0.2,0.2,0.4,0.4,0.6,0.7
				c0.2,0.4,0.3,0.7,0.3,1.1C1400,321.3,1400.1,321.9,1400.1,322.5z"/>
			<path class="st8" d="M1419,325.6c0,0.3-0.1,0.5-0.2,0.7c-0.2,0.2-0.4,0.4-0.7,0.5c-0.5,0.2-0.9,0.3-1.4,0.3
				c-0.7,0.1-1.4,0.1-2.2,0.1c-0.7,0-1.4,0-2.2-0.1c-0.5-0.1-1-0.2-1.4-0.3c-0.3-0.1-0.5-0.3-0.7-0.5c-0.1-0.2-0.2-0.5-0.2-0.7v-65
				c0-0.3,0.1-0.5,0.2-0.7c0.2-0.2,0.5-0.4,0.8-0.5c0.5-0.1,0.9-0.2,1.4-0.3c0.7-0.1,1.4-0.1,2.1-0.1s1.5,0,2.2,0.1
				c0.5,0.1,0.9,0.2,1.4,0.3c0.3,0.1,0.5,0.3,0.7,0.5c0.1,0.2,0.2,0.5,0.2,0.7L1419,325.6L1419,325.6z"/>
			<path class="st8" d="M1486.1,323c0.2,0.6,0.4,1.2,0.4,1.8c0,0.4-0.1,0.8-0.4,1c-0.4,0.3-0.9,0.4-1.4,0.5
				c-0.8,0.1-1.7,0.1-2.6,0.1c-1.1,0-1.9,0-2.5-0.1c-0.5,0-1-0.1-1.4-0.3c-0.3-0.1-0.5-0.3-0.7-0.5s-0.3-0.5-0.4-0.8l-5.7-16.2
				h-27.6l-5.4,16c-0.1,0.3-0.2,0.6-0.4,0.8c-0.2,0.2-0.4,0.4-0.7,0.6c-0.4,0.2-0.9,0.3-1.4,0.3c-0.8,0.1-1.6,0.1-2.3,0.1
				c-0.8,0-1.6,0-2.4-0.1c-0.5,0-0.9-0.2-1.3-0.5c-0.3-0.3-0.4-0.7-0.4-1c0.1-0.6,0.2-1.2,0.4-1.8l22.2-61.8
				c0.1-0.3,0.3-0.7,0.5-0.9c0.3-0.3,0.6-0.5,1-0.6c0.5-0.2,1.1-0.3,1.6-0.3c0.7,0,1.5-0.1,2.5-0.1s2,0,2.7,0.1
				c0.6,0,1.2,0.1,1.8,0.3c0.4,0.1,0.7,0.3,1,0.6c0.2,0.3,0.4,0.6,0.6,1L1486.1,323z M1457.5,268.7L1457.5,268.7l-11.4,33h23
				L1457.5,268.7z"/>
			<path class="st8" d="M1542.2,325.1c0,0.3,0,0.5-0.2,0.7s-0.4,0.4-0.7,0.5c-0.5,0.2-1,0.3-1.5,0.3c-0.8,0.1-1.7,0.1-2.5,0.1
				c-0.7,0-1.5,0-2.2-0.1c-0.5,0-0.9-0.2-1.4-0.3c-0.3-0.1-0.6-0.4-0.8-0.6c-0.2-0.3-0.4-0.6-0.5-1l-6.2-15.7
				c-0.7-1.8-1.5-3.4-2.3-4.9c-0.7-1.4-1.7-2.7-2.8-3.9c-1.1-1.1-2.4-1.9-3.8-2.5c-1.7-0.6-3.5-0.9-5.3-0.9h-6v28.4
				c0,0.3-0.1,0.5-0.2,0.7c-0.2,0.2-0.5,0.4-0.7,0.5c-0.4,0.1-0.9,0.2-1.4,0.3c-1.4,0.2-2.9,0.2-4.3,0c-0.5-0.1-0.9-0.2-1.4-0.3
				c-0.3-0.1-0.5-0.3-0.7-0.5c-0.1-0.2-0.2-0.5-0.2-0.7v-61.9c-0.1-1.1,0.3-2.1,1.1-2.8c0.7-0.5,1.5-0.8,2.3-0.8h14.4
				c1.7,0,3.1,0,4.3,0.1s2.2,0.2,3.1,0.3c2.4,0.4,4.7,1.1,6.9,2.1c1.9,0.9,3.6,2.1,5,3.7c1.4,1.5,2.4,3.2,3.1,5.1c0.7,2,1,4.2,1,6.3
				c0,2-0.3,4.1-0.9,6c-0.6,1.7-1.5,3.3-2.6,4.7c-1.2,1.4-2.6,2.6-4.1,3.5c-1.7,1-3.5,1.9-5.4,2.5c1.1,0.5,2.1,1.1,3,1.8
				c1,0.8,1.8,1.7,2.5,2.7c0.8,1.1,1.6,2.3,2.2,3.6c0.7,1.3,1.4,2.8,2.1,4.5l6.1,14.7c0.5,1.2,0.8,2.1,0.9,2.6
				C1542,324.3,1542.1,324.7,1542.2,325.1z M1527.8,278.6c0.1-2.3-0.5-4.5-1.7-6.5c-1.4-1.9-3.4-3.3-5.8-3.8
				c-0.9-0.3-1.9-0.4-2.8-0.5c-1.1-0.1-2.4-0.1-4.2-0.1h-7.3v22h8.5c2,0,4-0.2,5.9-0.8c1.5-0.5,2.9-1.3,4.2-2.3
				c1.1-1,1.9-2.2,2.4-3.5C1527.5,281.6,1527.8,280.1,1527.8,278.6z"/>
			<path class="st8" d="M1563,325.6c0,0.3-0.1,0.5-0.2,0.7c-0.2,0.2-0.4,0.4-0.7,0.5c-0.5,0.2-0.9,0.3-1.4,0.3
				c-0.7,0.1-1.4,0.1-2.2,0.1c-0.7,0-1.4,0-2.2-0.1c-0.5-0.1-1-0.2-1.4-0.3c-0.3-0.1-0.5-0.3-0.7-0.5c-0.1-0.2-0.2-0.5-0.2-0.7v-65
				c0-0.3,0.1-0.5,0.2-0.7c0.2-0.2,0.5-0.4,0.8-0.5c0.5-0.1,0.9-0.2,1.4-0.3c0.7-0.1,1.4-0.1,2.1-0.1s1.5,0,2.2,0.1
				c0.5,0.1,0.9,0.2,1.4,0.3c0.3,0.1,0.5,0.3,0.7,0.5c0.1,0.2,0.2,0.5,0.2,0.7L1563,325.6L1563,325.6z"/>
			<path class="st8" d="M1630.5,323c0.2,0.6,0.4,1.2,0.4,1.8c0,0.4-0.1,0.8-0.4,1c-0.4,0.3-0.9,0.4-1.4,0.5
				c-0.8,0.1-1.7,0.1-2.5,0.1c-1.1,0-1.9,0-2.6-0.1c-0.5,0-1-0.1-1.4-0.3c-0.3-0.1-0.5-0.3-0.7-0.5s-0.3-0.5-0.4-0.8l-5.7-16.2
				h-27.6l-5.4,16c-0.1,0.3-0.2,0.6-0.4,0.8c-0.2,0.2-0.4,0.4-0.7,0.6c-0.4,0.2-0.9,0.3-1.4,0.3c-0.8,0.1-1.6,0.1-2.3,0.1
				c-0.8,0-1.6,0-2.4-0.1c-0.5,0-1-0.2-1.3-0.5s-0.4-0.7-0.4-1c0.1-0.6,0.2-1.2,0.4-1.8l22.3-61.8c0.1-0.3,0.3-0.7,0.5-0.9
				c0.3-0.3,0.6-0.5,1-0.6c0.5-0.2,1.1-0.3,1.6-0.3c0.7,0,1.5-0.1,2.5-0.1s2,0,2.7,0.1c0.6,0,1.2,0.1,1.8,0.3c0.4,0.1,0.7,0.3,1,0.6
				c0.3,0.3,0.4,0.6,0.6,1L1630.5,323z M1601.9,268.7L1601.9,268.7l-11.5,33h23L1601.9,268.7z"/>
		</g>
		<line class="st9" x1="674" y1="292.2" x2="985" y2="292.2"/>
		<line class="st9" x1="1665" y1="292.2" x2="1976" y2="292.2"/>
		<g>
			<path class="st8" d="M758.3,205.5c0,0.9,0,1.6-0.1,2.3c0,0.6-0.1,1.2-0.3,1.7c-0.1,0.5-0.3,0.9-0.5,1.3c-0.3,0.5-0.7,1-1.2,1.4
				c-1.1,0.9-2.2,1.8-3.5,2.5c-2.1,1.3-4.3,2.4-6.5,3.3c-2.9,1.2-5.9,2.1-9,2.7c-3.6,0.8-7.3,1.1-11.1,1.1
				c-6.4,0.1-12.8-1.1-18.7-3.5c-5.5-2.2-10.4-5.7-14.2-10.2c-4.1-4.9-7.2-10.5-9-16.6c-2.2-7.4-3.3-15.1-3.2-22.8
				c-0.1-8,1-16,3.4-23.6c2-6.4,5.3-12.4,9.6-17.5c4-4.7,9.1-8.5,14.8-11c8.8-3.7,18.6-4.7,28-2.9c2.7,0.5,5.4,1.3,8,2.2
				c2.3,0.8,4.5,1.8,6.6,3c1.4,0.8,2.8,1.8,4,2.8c0.5,0.5,1,1.1,1.4,1.7c0.2,0.4,0.4,0.9,0.5,1.4c0.2,0.6,0.3,1.2,0.3,1.9
				c0.1,0.8,0.1,1.7,0.1,2.6s0,1.9-0.2,2.8c-0.1,0.7-0.3,1.3-0.5,1.9c-0.2,0.4-0.4,0.8-0.8,1.1c-0.3,0.3-0.7,0.4-1.1,0.4
				c-1.2-0.2-2.3-0.8-3.2-1.6c-1.7-1.3-3.5-2.5-5.3-3.5c-2.5-1.4-5.2-2.6-7.9-3.5c-3.6-1.1-7.4-1.7-11.2-1.6
				c-4.5-0.1-8.9,0.9-12.9,2.8s-7.4,4.8-10,8.3c-2.9,4.1-5.1,8.6-6.4,13.4c-3,11.8-3,24.2-0.1,36c1.2,4.7,3.4,9.1,6.3,13
				c2.6,3.4,6.1,6.1,10,7.9c4.3,1.9,8.9,2.8,13.6,2.7c3.8,0.1,7.5-0.5,11.1-1.6c2.8-0.9,5.5-2.1,8.1-3.5c2.2-1.3,4.1-2.5,5.5-3.5
				c1-0.8,2.1-1.4,3.4-1.6c0.4,0,0.7,0.1,1,0.3s0.6,0.6,0.7,0.9c0.2,0.6,0.3,1.3,0.4,1.9C758.2,203.2,758.3,204.3,758.3,205.5z"/>
			<path class="st8" d="M856.7,215.6c0.4,0.9,0.6,1.9,0.7,2.9c0.1,0.6-0.2,1.2-0.6,1.7c-0.6,0.5-1.4,0.7-2.2,0.7
				c-1.4,0.1-2.7,0.2-4.1,0.2c-1.7,0-3,0-4.1-0.1c-0.8,0-1.6-0.2-2.3-0.4c-0.5-0.1-0.9-0.4-1.2-0.8c-0.3-0.4-0.5-0.8-0.7-1.2
				l-9.1-25.9h-44.2l-8.7,25.6c-0.2,0.5-0.4,0.9-0.7,1.3c-0.3,0.4-0.7,0.7-1.2,0.9c-0.7,0.3-1.5,0.5-2.2,0.5
				c-1.2,0.1-2.5,0.2-3.7,0.2c-1.3,0-2.6-0.1-3.9-0.2c-0.8,0-1.5-0.3-2.1-0.8c-0.4-0.4-0.6-1.1-0.6-1.7c0.1-1,0.3-2,0.7-2.9
				l35.7-98.8c0.2-0.6,0.5-1.1,0.8-1.5c0.4-0.4,1-0.7,1.6-0.9c0.9-0.2,1.7-0.4,2.6-0.4c1.1-0.1,2.4-0.1,4.1-0.1s3.2,0,4.3,0.1
				c0.9,0,1.9,0.2,2.8,0.4c0.6,0.2,1.2,0.5,1.6,0.9c0.4,0.4,0.7,1,0.9,1.5L856.7,215.6z M810.9,128.7L810.9,128.7l-18.4,53h37
				L810.9,128.7z"/>
			<path class="st8" d="M945.2,218c0,0.4-0.1,0.8-0.2,1.2c-0.2,0.4-0.6,0.7-1.1,0.8c-0.7,0.3-1.5,0.4-2.3,0.5
				c-1.3,0.1-2.6,0.2-3.9,0.2c-1.2,0-2.3,0-3.5-0.2c-0.7-0.1-1.5-0.3-2.2-0.5c-0.5-0.2-0.9-0.6-1.3-1c-0.3-0.5-0.6-1.1-0.8-1.6
				l-9.7-25.1c-1.1-2.9-2.3-5.5-3.5-7.9c-1.1-2.3-2.6-4.3-4.4-6.2c-1.7-1.7-3.7-3.1-5.9-4c-2.6-1-5.4-1.5-8.2-1.4H889v45.3
				c0,0.4-0.1,0.8-0.4,1.1c-0.3,0.4-0.7,0.6-1.1,0.8c-0.7,0.2-1.4,0.4-2.1,0.5c-2.2,0.3-4.5,0.3-6.8,0c-0.7-0.1-1.5-0.3-2.2-0.5
				c-0.5-0.1-0.9-0.4-1.1-0.8c-0.2-0.3-0.3-0.7-0.3-1.1v-98.6c0-2.1,0.6-3.6,1.7-4.5c1-0.8,2.2-1.3,3.5-1.3h22.4
				c2.7,0,4.9,0.1,6.6,0.2c1.8,0.1,3.3,0.3,4.8,0.4c3.7,0.6,7.4,1.7,10.8,3.4c3,1.4,5.6,3.4,7.9,5.8c2.1,2.4,3.7,5.1,4.8,8.1
				c1.1,3.2,1.6,6.7,1.6,10.1c0,3.3-0.4,6.5-1.4,9.6c-0.9,2.7-2.3,5.3-4.1,7.5s-4,4.1-6.4,5.6c-2.6,1.6-5.4,3-8.4,4
				c1.7,0.8,3.3,1.7,4.7,2.9c1.5,1.3,2.8,2.7,4,4.2c1.3,1.8,2.5,3.7,3.5,5.7c1.1,2.1,2.2,4.6,3.3,7.2l9.4,23.5
				c0.8,2,1.3,3.4,1.5,4.2C945.1,216.8,945.2,217.4,945.2,218z M924.7,143.6c0.1-3.7-0.9-7.4-2.8-10.6c-1.9-2.9-5-5-9.4-6.2
				c-1.5-0.4-3.1-0.7-4.7-0.8c-1.7-0.2-4-0.3-6.8-0.3h-12v36h13.9c3.3,0.1,6.6-0.4,9.7-1.4c2.5-0.8,4.8-2.1,6.8-3.8
				c1.8-1.6,3.1-3.5,4-5.7C924.3,148.5,924.7,146.1,924.7,143.6z"/>
			<path class="st8" d="M980,217.9c0,0.4-0.1,0.8-0.3,1.1c-0.3,0.4-0.7,0.7-1.1,0.8c-0.7,0.2-1.4,0.4-2.2,0.5
				c-2.2,0.3-4.5,0.3-6.7,0c-0.7-0.1-1.5-0.3-2.2-0.5c-0.5-0.1-0.9-0.4-1.1-0.8c-0.2-0.3-0.3-0.7-0.3-1.1V116.8
				c0-0.4,0.1-0.8,0.4-1.1c0.3-0.4,0.7-0.6,1.2-0.8c0.7-0.2,1.4-0.4,2.2-0.5c1.1-0.2,2.1-0.2,3.2-0.2c1.1,0,2.3,0.1,3.4,0.2
				c0.7,0.1,1.4,0.3,2.2,0.5c0.5,0.1,0.9,0.4,1.1,0.8c0.2,0.3,0.3,0.7,0.3,1.1L980,217.9z"/>
			<path class="st8" d="M1077.9,190.3c0,3.1-0.4,6.2-1.3,9.2c-0.8,2.7-2,5.3-3.6,7.6c-1.5,2.2-3.4,4.2-5.5,5.9
				c-2.2,1.7-4.7,3.2-7.3,4.3c-2.8,1.2-5.7,2-8.7,2.6c-3.5,0.6-7.1,0.9-10.6,0.9h-27.7c-1.3,0-2.5-0.5-3.6-1.3
				c-1.1-0.9-1.7-2.3-1.7-4.5v-94.5c0-2.1,0.6-3.6,1.7-4.5c1-0.8,2.3-1.3,3.6-1.3h24.1c5.2-0.1,10.5,0.5,15.6,1.8
				c3.7,1,7.1,2.8,10.1,5.2c2.7,2.3,4.8,5.2,6.1,8.4c1.4,3.6,2.1,7.4,2.1,11.3c0,2.4-0.3,4.9-0.9,7.2c-0.6,2.2-1.5,4.4-2.7,6.3
				c-1.2,2-2.7,3.7-4.4,5.2c-1.8,1.6-3.9,2.8-6.1,3.8c2.9,0.5,5.6,1.6,8.1,3s4.7,3.3,6.6,5.5c1.9,2.3,3.5,5,4.5,7.9
				C1077.4,183.6,1077.9,186.9,1077.9,190.3z M1056.3,142.2c0-2.3-0.3-4.7-1.1-6.9c-0.7-2-1.8-3.8-3.3-5.2c-1.7-1.5-3.7-2.7-5.9-3.3
				c-3.1-0.8-6.4-1.2-9.6-1.1H1022v34h15.9c3,0.1,5.9-0.4,8.7-1.4c2.1-0.9,4-2.2,5.5-3.8s2.5-3.5,3.2-5.6
				C1056,146.7,1056.3,144.5,1056.3,142.2z M1062.6,190.9c0.1-2.8-0.5-5.6-1.5-8.3c-1-2.3-2.5-4.4-4.4-6c-2.1-1.7-4.6-3-7.2-3.7
				c-3.6-0.9-7.2-1.3-10.9-1.3H1022v37h20.3c2.8,0.1,5.6-0.3,8.3-1.1c2.3-0.7,4.4-1.8,6.3-3.4c1.8-1.5,3.3-3.4,4.3-5.6
				C1062.2,196.2,1062.7,193.6,1062.6,190.9L1062.6,190.9z"/>
			<path class="st8" d="M1158.6,214.7c0,0.9-0.1,1.8-0.2,2.6c-0.1,0.7-0.3,1.3-0.6,1.9c-0.2,0.4-0.5,0.8-0.9,1.1
				c-0.4,0.2-0.8,0.3-1.2,0.3h-50.6c-1.3,0-2.5-0.5-3.5-1.3c-1.1-0.9-1.7-2.4-1.7-4.6v-95.3c0-2.2,0.6-3.7,1.7-4.6
				c1-0.8,2.2-1.3,3.5-1.3h50c0.4,0,0.8,0.1,1.2,0.3c0.4,0.3,0.7,0.6,0.8,1.1c0.3,0.6,0.4,1.2,0.5,1.9c0.2,0.9,0.2,1.9,0.2,2.8
				s-0.1,1.8-0.2,2.6c-0.1,0.6-0.3,1.3-0.5,1.9c-0.2,0.4-0.5,0.8-0.8,1c-0.4,0.2-0.8,0.3-1.2,0.3H1114v34h34.3c0.3,0,0.5,0,0.8,0.1
				c0.5,0.3,1,0.7,1.3,1.2s0.5,1.1,0.5,1.7c0.1,0.9,0.2,1.7,0.2,2.6c0,0.8,0,1.6-0.2,2.4c-0.1,0.6-0.2,1.1-0.5,1.7
				c-0.2,0.4-0.5,0.7-0.9,0.9c-0.3,0.2-0.7,0.3-1.1,0.3H1114v38h41.8c0.4,0,0.8,0.1,1.2,0.3c0.4,0.3,0.7,0.6,0.9,1
				c0.3,0.6,0.5,1.2,0.6,1.9C1158.6,212.8,1158.6,213.8,1158.6,214.7z"/>
			<path class="st8" d="M1260,215.6c0.4,0.9,0.6,1.9,0.7,2.9c0,0.6-0.2,1.2-0.7,1.7c-0.6,0.5-1.4,0.7-2.2,0.7
				c-1.4,0.1-2.7,0.2-4.1,0.2c-1.7,0-3.1,0-4.1-0.1c-0.8,0-1.6-0.2-2.3-0.4c-0.5-0.1-0.9-0.4-1.2-0.8c-0.3-0.4-0.5-0.8-0.7-1.2
				l-9.1-25.9h-44.2l-8.7,25.6c-0.1,0.5-0.4,0.9-0.7,1.3c-0.3,0.4-0.7,0.7-1.2,0.9c-0.7,0.3-1.5,0.5-2.2,0.5
				c-1.2,0.1-2.5,0.2-3.7,0.2c-1.3,0-2.6-0.1-3.9-0.2c-0.8,0-1.5-0.3-2.1-0.8c-0.4-0.4-0.7-1.1-0.6-1.7c0.1-1,0.3-2,0.7-2.9
				l35.7-98.8c0.2-0.5,0.5-1,0.9-1.5c0.4-0.4,1-0.7,1.6-0.9c0.9-0.3,1.7-0.4,2.6-0.4c1.1-0.1,2.4-0.1,4.1-0.1s3.2,0,4.4,0.1
				c0.9,0,1.9,0.2,2.8,0.4c0.6,0.2,1.2,0.5,1.7,0.9c0.4,0.4,0.7,1,0.9,1.5L1260,215.6z M1214.2,128.7L1214.2,128.7l-18.4,53h37
				L1214.2,128.7z"/>
			<path class="st8" d="M1358,214.8c0,0.9-0.2,1.9-0.6,2.7c-0.3,0.7-0.8,1.3-1.4,1.9c-0.6,0.5-1.3,0.8-2,1s-1.4,0.3-2.2,0.3h-4.4
				c-1.3,0-2.6-0.1-3.9-0.5c-1.2-0.3-2.2-0.9-3.2-1.6c-1.1-0.9-2.2-2-3-3.3c-1.2-1.7-2.2-3.4-3.2-5.3l-32.5-60.6
				c-1.7-3.1-3.4-6.4-5.1-9.8s-3.3-6.8-4.8-10h-0.2c0.1,4,0.2,8,0.3,12.1c0.1,4.1,0.1,8.2,0.1,12.3v64.7c0,0.4-0.1,0.8-0.3,1.1
				c-0.3,0.4-0.7,0.7-1.2,0.8c-0.7,0.2-1.4,0.4-2.2,0.5c-2.3,0.3-4.5,0.3-6.8,0c-0.7-0.1-1.4-0.3-2.1-0.5c-0.5-0.1-0.8-0.4-1.1-0.8
				c-0.2-0.3-0.3-0.7-0.3-1.1v-98c0-2.2,0.6-3.7,1.8-4.7c1.1-0.9,2.5-1.4,4-1.4h6.9c1.4,0,2.7,0.1,4.1,0.4c1.1,0.3,2.1,0.7,2.9,1.4
				c1,0.7,1.8,1.6,2.5,2.6c0.9,1.3,1.8,2.8,2.6,4.2l24.7,46.6c1.5,2.8,3,5.6,4.4,8.3s2.8,5.4,4.1,8s2.6,5.2,3.9,7.8s2.6,5.1,3.8,7.7
				h0.5c-0.1-4.2-0.2-8.6-0.2-13.2s0-9,0-13.2V119c0-0.4,0.1-0.7,0.3-1c0.3-0.4,0.7-0.7,1.2-0.8c0.7-0.3,1.4-0.5,2.2-0.5
				c1.2-0.1,2.3-0.2,3.5-0.2c1.1,0,2.2,0,3.3,0.2c0.7,0.1,1.5,0.2,2.2,0.5c0.4,0.2,0.8,0.5,1.1,0.8c0.2,0.3,0.3,0.6,0.3,1
				L1358,214.8z"/>
			<path class="st8" d="M1481.6,190.7c0.1,4.6-0.9,9.1-2.8,13.3c-1.8,3.8-4.4,7.2-7.6,9.9c-3.4,2.8-7.3,4.9-11.5,6.1
				c-4.6,1.4-9.4,2.1-14.3,2.1c-3.3,0-6.6-0.3-9.9-0.9c-2.8-0.5-5.5-1.3-8.1-2.2c-2.1-0.7-4.1-1.6-6-2.7c-1.2-0.6-2.4-1.4-3.4-2.4
				c-0.7-0.7-1.1-1.6-1.4-2.5c-0.3-1.3-0.5-2.7-0.5-4.1c0-1,0-2,0.2-3c0.1-0.7,0.2-1.3,0.5-1.9c0.3-0.8,1.1-1.4,2-1.3
				c1.2,0.2,2.3,0.7,3.2,1.4c4.1,2.7,8.6,4.7,13.3,6.1c3.5,1,7.1,1.5,10.7,1.4c2.9,0,5.7-0.4,8.4-1.2c2.4-0.7,4.6-1.9,6.6-3.5
				c1.8-1.5,3.3-3.4,4.2-5.6c1-2.4,1.5-4.9,1.5-7.5c0.1-2.7-0.6-5.4-2.1-7.7c-1.4-2.2-3.3-4.1-5.4-5.6c-2.4-1.7-5-3.2-7.7-4.4
				l-8.8-4.1c-3-1.4-5.9-2.9-8.8-4.6c-2.8-1.7-5.4-3.7-7.7-6c-2.3-2.4-4.1-5.1-5.5-8.1c-1.5-3.5-2.2-7.3-2.1-11.1
				c-0.1-4.1,0.8-8.1,2.4-11.9c1.6-3.4,3.9-6.4,6.7-8.8c3-2.4,6.5-4.3,10.3-5.4c4.2-1.3,8.5-1.9,12.9-1.9c2.4,0,4.8,0.2,7.1,0.6
				c2.3,0.4,4.5,0.9,6.7,1.6c1.9,0.6,3.8,1.4,5.6,2.3c1.2,0.5,2.3,1.2,3.3,2.1c0.4,0.4,0.7,0.8,1,1.2c0.2,0.4,0.3,0.8,0.4,1.2
				c0.1,0.6,0.2,1.1,0.3,1.7c0,0.7,0.1,1.5,0.1,2.6c0,0.9,0,1.8-0.1,2.6c-0.1,0.7-0.2,1.3-0.4,1.9c-0.1,0.4-0.4,0.8-0.7,1.1
				c-0.3,0.2-0.6,0.4-1,0.4c-1-0.2-2-0.5-2.8-1.1c-1.3-0.8-2.9-1.6-4.7-2.6c-2.1-1.1-4.3-1.9-6.6-2.6c-2.8-0.8-5.7-1.2-8.6-1.2
				c-2.6-0.1-5.2,0.4-7.7,1.2c-2,0.7-3.8,1.8-5.4,3.2c-1.4,1.3-2.5,2.9-3.2,4.7s-1.1,3.8-1.1,5.8c-0.1,2.7,0.6,5.4,2.1,7.6
				c1.5,2.2,3.3,4.1,5.5,5.7c2.4,1.7,5,3.3,7.8,4.5c2.9,1.4,5.9,2.8,8.9,4.1c3,1.4,6,2.9,8.9,4.6c2.8,1.6,5.5,3.6,7.8,5.9
				C1479.1,176.7,1481.8,183.6,1481.6,190.7L1481.6,190.7z"/>
			<path class="st8" d="M1560.6,214.7c0,0.9-0.1,1.8-0.2,2.6c-0.1,0.7-0.3,1.3-0.6,1.9c-0.2,0.4-0.5,0.8-0.9,1.1
				c-0.4,0.2-0.8,0.3-1.2,0.3h-50.6c-1.3,0-2.5-0.5-3.5-1.3c-1.1-0.9-1.7-2.4-1.7-4.6v-95.3c0-2.2,0.6-3.7,1.7-4.6
				c1-0.8,2.2-1.3,3.5-1.3h50c0.4,0,0.8,0.1,1.2,0.3c0.4,0.3,0.7,0.6,0.8,1.1c0.3,0.6,0.4,1.2,0.5,1.9c0.2,0.9,0.2,1.9,0.2,2.8
				s-0.1,1.8-0.2,2.6c-0.1,0.6-0.3,1.3-0.5,1.9c-0.2,0.4-0.5,0.8-0.8,1c-0.4,0.2-0.8,0.3-1.2,0.3H1516v34h34.3c0.3,0,0.5,0,0.8,0.1
				c0.5,0.3,1,0.7,1.3,1.2s0.5,1.1,0.5,1.7c0.1,0.9,0.2,1.7,0.2,2.6c0,0.8,0,1.6-0.2,2.4c-0.1,0.6-0.2,1.1-0.5,1.7
				c-0.2,0.4-0.5,0.7-0.9,0.9c-0.3,0.2-0.7,0.3-1.1,0.3H1516v38h41.8c0.4,0,0.8,0.1,1.2,0.3c0.4,0.3,0.7,0.6,0.9,1
				c0.3,0.6,0.5,1.2,0.6,1.9C1560.6,212.8,1560.6,213.8,1560.6,214.7z"/>
			<path class="st8" d="M1654.3,218c0,0.4-0.1,0.8-0.3,1.2c-0.2,0.4-0.6,0.7-1,0.8c-0.7,0.3-1.5,0.4-2.3,0.5
				c-1.3,0.1-2.6,0.2-3.9,0.2c-1.2,0-2.3,0-3.5-0.2c-0.7-0.1-1.5-0.3-2.2-0.5c-0.5-0.2-0.9-0.6-1.3-1c-0.3-0.5-0.6-1.1-0.8-1.6
				l-9.7-25.1c-1.1-2.9-2.3-5.5-3.5-7.9c-1.1-2.3-2.6-4.3-4.4-6.2c-1.7-1.7-3.7-3.1-5.9-4c-2.6-1-5.4-1.5-8.2-1.4h-9.4v45.3
				c0,0.4-0.1,0.8-0.4,1.1c-0.3,0.4-0.7,0.6-1.1,0.8c-0.7,0.2-1.4,0.4-2.1,0.5c-2.2,0.3-4.5,0.3-6.8,0c-0.7-0.1-1.5-0.3-2.2-0.5
				c-0.5-0.1-0.9-0.4-1.1-0.8c-0.2-0.3-0.3-0.7-0.3-1.1v-98.7c0-2.1,0.6-3.6,1.7-4.5c1-0.8,2.2-1.3,3.5-1.3h22.4
				c2.7,0,4.9,0.1,6.6,0.2c1.8,0.1,3.3,0.3,4.8,0.4c3.7,0.6,7.4,1.7,10.8,3.4c3,1.4,5.6,3.4,7.8,5.8c2.1,2.4,3.7,5.1,4.8,8.1
				c2.1,6.4,2.1,13.2,0.2,19.7c-0.9,2.7-2.3,5.3-4.1,7.5c-1.8,2.2-4,4.1-6.4,5.6c-2.6,1.6-5.4,3-8.4,4c1.7,0.8,3.3,1.7,4.7,2.9
				c1.5,1.3,2.8,2.7,4,4.2c1.3,1.8,2.5,3.7,3.5,5.7c1.1,2.1,2.2,4.6,3.3,7.2l9.4,23.4c0.8,2,1.2,3.4,1.5,4.2
				C1654.1,216.8,1654.2,217.4,1654.3,218z M1633.7,143.6c0.1-3.7-0.9-7.4-2.8-10.6c-1.9-2.9-5-5-9.4-6.2c-1.5-0.4-3.1-0.7-4.7-0.8
				c-1.7-0.2-4-0.3-6.8-0.3h-12v36h13.9c3.3,0.1,6.6-0.4,9.7-1.4c2.5-0.8,4.8-2.1,6.8-3.8c1.8-1.6,3.1-3.5,4-5.7
				C1633.2,148.5,1633.7,146.1,1633.7,143.6L1633.7,143.6z"/>
			<path class="st8" d="M1716.2,217.8c-0.2,0.6-0.5,1.1-0.9,1.5c-0.5,0.4-1,0.7-1.6,0.9c-0.9,0.2-1.7,0.4-2.6,0.5
				c-1.1,0.1-2.4,0.1-4,0.1c-1.2,0-2.3,0-3.2,0c-1.4,0-2.7-0.2-4-0.6c-0.4-0.1-0.8-0.3-1.2-0.5c-0.3-0.2-0.6-0.5-0.8-0.8
				c-0.2-0.4-0.4-0.7-0.5-1.1l-34.8-98.8c-0.4-0.9-0.6-1.9-0.7-2.9c-0.1-0.6,0.2-1.3,0.7-1.7c0.7-0.5,1.5-0.7,2.4-0.7
				c1.1-0.1,2.6-0.2,4.4-0.2c1.5,0,2.8,0,3.7,0.1c0.7,0,1.4,0.2,2.1,0.5c0.4,0.2,0.8,0.5,1.1,0.9c0.3,0.4,0.5,0.9,0.7,1.4l30.5,89.5
				h0.1l29.7-89.4c0.1-0.5,0.3-1,0.6-1.5c0.3-0.4,0.7-0.7,1.2-0.9c0.7-0.3,1.5-0.4,2.3-0.5c1-0.1,2.3-0.1,4-0.1c1.3,0,2.7,0.1,4,0.2
				c0.7,0,1.4,0.3,2,0.8c0.4,0.5,0.5,1.1,0.4,1.7c-0.1,1-0.4,2-0.8,2.9L1716.2,217.8z"/>
			<path class="st8" d="M1783,217.9c0,0.4-0.1,0.8-0.3,1.1c-0.3,0.4-0.7,0.6-1.1,0.8c-0.7,0.2-1.4,0.4-2.2,0.5
				c-2.2,0.3-4.5,0.3-6.7,0c-0.7-0.1-1.5-0.3-2.2-0.5c-0.5-0.1-0.9-0.4-1.1-0.8c-0.2-0.3-0.3-0.7-0.3-1.1V116.8
				c0-0.4,0.1-0.8,0.4-1.1c0.3-0.4,0.7-0.6,1.2-0.8c0.7-0.2,1.5-0.4,2.2-0.5c1.1-0.1,2.1-0.2,3.2-0.2s2.3,0,3.4,0.2
				c0.7,0.1,1.5,0.3,2.2,0.5c0.5,0.1,0.9,0.4,1.1,0.8c0.2,0.3,0.3,0.7,0.3,1.1L1783,217.9L1783,217.9z"/>
			<path class="st8" d="M1882.2,205.5c0,0.9,0,1.6-0.1,2.3c0,0.6-0.1,1.2-0.3,1.7c-0.1,0.5-0.3,0.9-0.5,1.3c-0.3,0.5-0.7,1-1.2,1.4
				c-1.1,0.9-2.2,1.8-3.4,2.5c-2.1,1.3-4.3,2.4-6.5,3.3c-2.9,1.2-5.9,2.1-9,2.7c-3.6,0.8-7.3,1.1-11.1,1.1
				c-6.4,0.1-12.8-1.1-18.7-3.5c-5.5-2.2-10.3-5.7-14.2-10.2c-4.1-4.9-7.2-10.5-9-16.6c-2.2-7.4-3.3-15.1-3.2-22.8
				c-0.1-8,1-16,3.4-23.6c2-6.4,5.3-12.4,9.6-17.5c4-4.7,9.1-8.5,14.8-11c8.8-3.7,18.6-4.7,28-2.9c2.7,0.5,5.4,1.3,8.1,2.2
				c2.3,0.8,4.5,1.8,6.6,3c1.4,0.8,2.8,1.8,4,2.8c0.5,0.5,1,1.1,1.4,1.7c0.2,0.4,0.4,0.9,0.5,1.4c0.1,0.6,0.3,1.2,0.3,1.9
				c0.1,0.8,0.1,1.7,0.1,2.6s0,1.9-0.2,2.8c-0.1,0.7-0.2,1.3-0.5,1.9c-0.2,0.4-0.4,0.8-0.8,1.1c-0.3,0.3-0.7,0.4-1.1,0.4
				c-1.2-0.2-2.3-0.8-3.2-1.6c-1.7-1.3-3.5-2.5-5.3-3.5c-2.5-1.4-5.2-2.6-7.9-3.5c-3.6-1.1-7.4-1.7-11.2-1.6
				c-4.5-0.1-8.9,0.9-12.9,2.8s-7.4,4.8-10,8.3c-2.9,4.1-5.1,8.6-6.4,13.4c-3,11.8-3,24.2-0.1,36c1.2,4.7,3.4,9.1,6.3,13
				c2.6,3.4,6.1,6.1,10,7.9c4.2,1.8,8.8,2.7,13.5,2.7c3.8,0.1,7.5-0.5,11.1-1.6c2.8-0.9,5.5-2.1,8.1-3.5c1.9-1.1,3.7-2.2,5.5-3.5
				c1-0.8,2.1-1.4,3.4-1.6c0.4,0,0.7,0.1,1,0.3s0.6,0.6,0.7,0.9c0.2,0.6,0.3,1.3,0.4,1.9C1882.1,203.4,1882.2,204.5,1882.2,205.5z"
				/>
			<path class="st8" d="M1959.6,214.7c0,0.9-0.1,1.8-0.2,2.6c-0.1,0.7-0.3,1.3-0.6,1.9c-0.2,0.4-0.5,0.8-0.9,1.1
				c-0.4,0.2-0.8,0.3-1.2,0.3h-50.6c-1.3,0-2.5-0.5-3.5-1.3c-1.1-0.9-1.7-2.4-1.7-4.6v-95.3c0-2.2,0.6-3.7,1.7-4.6
				c1-0.8,2.2-1.3,3.5-1.3h50c0.4,0,0.8,0.1,1.2,0.3c0.4,0.3,0.7,0.6,0.8,1.1c0.3,0.6,0.4,1.2,0.5,1.9c0.2,0.9,0.2,1.9,0.2,2.8
				s-0.1,1.8-0.2,2.6c-0.1,0.6-0.3,1.3-0.5,1.9c-0.2,0.4-0.5,0.8-0.8,1c-0.4,0.2-0.8,0.3-1.2,0.3H1915v34h34.3c0.3,0,0.5,0,0.8,0.1
				c0.5,0.3,1,0.7,1.3,1.2s0.5,1.1,0.5,1.7c0.1,0.9,0.2,1.7,0.2,2.6c0,0.8,0,1.6-0.2,2.4c-0.1,0.6-0.2,1.1-0.5,1.7
				c-0.2,0.4-0.5,0.7-0.9,0.9c-0.3,0.2-0.7,0.3-1.1,0.3H1915v38h41.8c0.4,0,0.8,0.1,1.2,0.3c0.4,0.3,0.7,0.6,0.9,1
				c0.3,0.6,0.5,1.2,0.6,1.9C1959.6,212.8,1959.6,213.8,1959.6,214.7z"/>
		</g>
	</g>
	<g class="st10">
		<path class="st11" d="M974.2,433.1H963v25h-14v-68h25.3c8,0,14.2,1.8,18.6,5.4c4.4,3.6,6.5,8.6,6.5,15.2c0,4.6-1,8.5-3,11.6
			c-2,3.1-5.1,5.6-9.1,7.4l14.7,27.8v0.7h-15.1L974.2,433.1z M963,421.1h11.1c3.4,0,6.1-0.9,8-2.6c1.9-1.8,2.8-4.2,2.8-7.3
			c0-3.1-0.9-5.6-2.7-7.4c-1.8-1.8-4.5-2.7-8.2-2.7h-11V421.1z"/>
		<path class="st11" d="M1032.2,458.8c-7.4,0-13.5-2.3-18.2-6.8c-4.7-4.5-7-10.5-7-18v-1.3c0-5,1-9.5,3-13.5c2-4,4.8-7,8.4-9.2
			c3.6-2.1,7.7-3.2,12.3-3.2c6.9,0,12.4,2.2,16.4,6.5c4,4.3,6,10.5,6,18.4v5.5h-32.3c0.4,3.3,1.8,5.9,4,7.9c2.2,2,5,3,8.4,3
			c5.2,0,9.3-1.9,12.2-5.6l6.7,7.4c-2,2.8-4.8,5.1-8.2,6.7C1040.2,458,1036.4,458.8,1032.2,458.8z M1030,417.7
			c-2.7,0-4.8,0.9-6.5,2.7c-1.7,1.8-2.7,4.4-3.2,7.7h18.6V427c-0.1-3-0.9-5.3-2.4-6.9C1035,418.5,1032.8,417.7,1030,417.7z"/>
		<path class="st11" d="M1089.1,458.1c-0.6-1.7-1.1-3.2-1.3-5c-3.2,3.6-7.5,5.4-12.7,5.4c-4.9,0-9-1.4-12.2-4.3
			c-3.2-2.8-4.8-6.4-4.8-10.8c0-5.3,2-9.4,5.9-12.2c3.9-2.8,17.1-4.2,17.1-4.2h5.9v-3c0.2-2.3-0.4-4.2-1.5-5.6
			c-1.2-1.4-3.1-2.1-5.6-2.1c-2.3,0-4,0.5-5.3,1.6c-1.3,1.1-1.9,2.6-1.9,5h-13.4c0-3.5,0.9-6.2,2.7-8.7c1.8-2.5,4.3-4.4,7.6-5.8
			c3.3-1.4,7-2.1,11-2.1c6.2,0,11.1,1.6,14.7,4.7s4.8,13.1,4.8,13.1V446c0,0,1.4,8.4,3,10.8v1.3H1089.1z M1077.8,448.6
			c2,0,3.8-0.4,5.5-1.3c1.7-0.9,2.9-2.1,3.7-3.5v-8.6h-5c-6.7,0-10.3,2.3-10.7,7l0,0.8c0,1.7,0.6,3,1.8,4.1
			C1074.2,448.1,1075.8,448.6,1077.8,448.6z"/>
		<path class="st11" d="M1125,457.1h-13v-71h13V457.1z"/>
		<path class="st11" d="M1201,428.1h-26v18h31v12h-45v-68h45v11h-32v16h27V428.1z"/>
		<path class="st11" d="M1240.4,444.2c0-1.6-0.8-2.9-2.4-3.9c-1.6-0.9-4.2-1.8-7.8-2.5c-12-2.5-17.9-7.6-17.9-15.2
			c0-4.5,1.9-8.2,5.6-11.2c3.7-3,8.5-4.5,14.5-4.5c6.4,0,11.5,1.5,15.3,4.5c3.8,3,5.7,6.9,5.7,11.7h-13.4c0-1.9-0.6-3.5-1.9-4.8
			s-3.2-1.9-5.8-1.9c-2.3,0-4,0.5-5.2,1.5c-1.2,1-1.9,2.3-1.9,3.9c0,1.5,0.7,2.7,2.1,3.6c1.4,0.9,3.8,1.7,7.1,2.4
			c3.3,0.7,6.2,1.4,8.5,2.3c7.1,2.6,10.6,7.1,10.6,13.5c0,4.6-2,8.3-5.9,11.1c-3.9,2.8-9,4.3-15.2,4.3c-4.2,0-8-0.8-11.2-2.3
			c-3.3-1.5-5.8-3.6-7.7-6.2c-1.9-2.6-2.8-5.4-2.8-8.5h12.7c0.1,2.4,1,4.2,2.6,5.5c1.6,1.3,3.8,1.9,6.6,1.9c2.6,0,4.5-0.5,5.8-1.5
			C1239.7,447,1240.4,445.8,1240.4,444.2z"/>
		<path class="st11" d="M1278,395.1v12h9v10h-9v25c0,1.9,0.4,3.2,1.1,4c0.7,0.8,2.1,1.2,4,1.2c1.5,0,2.8-0.1,3.9-0.3v10.2
			c-2.6,0.8-5.2,1.2-7.9,1.2c-9.2,0-13.9-4.6-14.1-13.9v-27.3h-7v-10h7v-12H1278z"/>
		<path class="st11" d="M1323.4,458.1c-0.6-1.2-1.1-2.7-1.3-4.5c-3.3,3.7-7.5,5.5-12.7,5.5c-4.9,0-9-1.4-12.3-4.3
			c-3.2-2.9-4.9-6.5-4.9-10.9c0-5.4,2-9.5,5.9-12.4c4-2.9,9.7-4.3,17.1-4.4h6.7v-3c-0.7-2.3-1.3-4.2-2.5-5.6
			c-1.2-1.4-3.1-2.1-5.6-2.1c-2.3,0-4,0.5-5.3,1.6c-1.3,1.1-1.9,2.6-1.9,5h-13.4c0-3.5,0.9-6.2,2.7-8.7c1.8-2.5,4.3-4.4,7.6-5.8
			c3.3-1.4,7-2.1,11-2.1c6.2,0,11.1,1.6,14.7,4.7s5.7,13.1,5.7,13.1v22.1c0,4.8,0.7,8.5,2,10.9v0.8H1323.4z M1311.8,448.6
			c2,0,3.8-0.4,5.5-1.3c1.7-0.9,2.9-2.1,3.7-3.5v-8.6h-5c-6.7,0-10.3,2.3-10.7,7l0,0.8c0,1.7,0.6,3,1.8,4.1
			C1308.2,448.1,1309.8,448.6,1311.8,448.6z"/>
		<path class="st11" d="M1361,395.1v12h9v10h-9v25c0,1.9,0.4,3.2,1.1,4c0.7,0.8,2.1,1.2,4,1.2c1.5,0,2.8-0.1,3.9-0.3v10.2
			c-2.6,0.8-5.2,1.2-7.9,1.2c-9.2,0-13.9-4.6-14.1-13.9v-27.3h-7v-10h7v-12H1361z"/>
		<path class="st11" d="M1400.2,458.8c-7.4,0-13.5-2.3-18.2-6.8c-4.7-4.5-7-10.5-7-18v-1.3c0-5,1-9.5,3-13.5c2-4,4.8-7,8.4-9.2
			c3.6-2.1,7.7-3.2,12.3-3.2c6.9,0,12.4,2.2,16.4,6.5c4,4.3,6,10.5,6,18.4v5.5h-32.3c0.4,3.3,1.8,5.9,4,7.9c2.2,2,5,3,8.4,3
			c5.2,0,9.3-1.9,12.2-5.6l6.7,7.4c-2,2.8-4.8,5.1-8.2,6.7C1408.2,458,1404.4,458.8,1400.2,458.8z M1399,417.7
			c-2.7,0-4.8,0.9-6.5,2.7c-1.7,1.8-2.7,4.4-3.2,7.7h18.6V427c-0.1-3-0.9-5.3-2.4-6.9C1404,418.5,1401.8,417.7,1399,417.7z"/>
		<path class="st11" d="M1453,458.1v-68h23.8c8.3,0,14.5,1.6,18.8,4.7c4.3,3.2,6.4,7.8,6.4,13.9c0,3.3-0.9,6.3-2.6,8.8
			c-1.7,2.5-4.1,4.4-7.1,5.6c3.5,0.9,6.2,2.6,8.2,5.3c2,2.6,3,5.9,3,9.7c0,6.5-2.1,11.5-6.3,14.9c-4.2,3.4-10.1,5.1-17.8,5.1H1453z
			 M1467,418.1h10.3c7-0.1,10.5-2.9,10.5-8.4c0-3.1-0.9-5.3-2.7-6.6c-1.8-1.3-4.6-2-8.4-2h-9.7V418.1z M1467,428.1v18h11.8
			c3.2,0,5.8-0.8,7.6-2.3c1.8-1.5,2.7-3.7,2.7-6.4c0-6.1-3.2-9.2-9.5-9.3H1467z"/>
		<path class="st11" d="M1540.8,419.7c-1.8-0.2-3.4-0.4-4.8-0.4c-5.1,0-8.4,1.7-10,5.1v32.7h-13v-50h12.3l0.4,6
			c2.7-4.6,6.4-6.9,11.2-6.9c1.5,0,2.9,0.2,4.2,0.6L1540.8,419.7z"/>
		<path class="st11" d="M1544,432.1c0-5,1-9.4,2.9-13.3c1.9-3.9,4.7-6.9,8.3-9c3.6-2.1,7.8-3.2,12.5-3.2c6.8,0,12.3,2.1,16.6,6.2
			c4.3,4.1,6.7,9.8,7.2,16.9l0.1,3.4c0,7.7-2.1,13.9-6.4,18.5c-4.3,4.7-10.1,7-17.3,7c-7.2,0-13-2.3-17.3-7
			c-4.3-4.6-6.5-10.9-6.5-18.9V432.1z M1557,433c0,4.8,0.9,8.4,2.7,10.9c1.8,2.5,4.4,3.8,7.7,3.8c3.2,0,5.8-1.2,7.6-3.7
			c1.8-2.5,2.7-6.5,2.7-12c0-4.7-0.9-8.3-2.7-10.9c-1.8-2.6-4.4-3.9-7.7-3.9c-3.3,0-5.8,1.3-7.6,3.8
			C1557.9,423.7,1557,427.6,1557,433z"/>
		<path class="st11" d="M1617.8,437l-4.8,4.8v15.2h-13v-71h13v39.3l2.6-3.3l12.8-15h16l-18.1,20.8l19.6,29.2h-15.3L1617.8,437z"/>
		<path class="st11" d="M1672.2,458.8c-7.4,0-13.5-2.3-18.2-6.8c-4.7-4.5-7-10.5-7-18v-1.3c0-5,1-9.5,3-13.5c2-4,4.8-7,8.4-9.2
			c3.6-2.1,7.7-3.2,12.3-3.2c6.9,0,12.4,2.2,16.4,6.5c4,4.3,6,10.5,6,18.4v5.5h-32.3c0.4,3.3,1.8,5.9,4,7.9c2.2,2,5,3,8.4,3
			c5.2,0,9.3-1.9,12.2-5.6l6.7,7.4c-2,2.8-4.8,5.1-8.2,6.7C1680.2,458,1676.4,458.8,1672.2,458.8z M1671,417.7
			c-2.7,0-4.8,0.9-6.5,2.7c-1.7,1.8-2.7,4.4-3.2,7.7h18.6V427c-0.1-3-0.9-5.3-2.4-6.9C1676,418.5,1673.8,417.7,1671,417.7z"/>
		<path class="st11" d="M1728.8,419.7c-1.8-0.2-3.4-0.4-4.8-0.4c-5.1,0-8.4,1.7-10,5.1v32.7h-13v-50h12.3l0.4,6
			c2.7-4.6,6.4-6.9,11.2-6.9c1.5,0,2.9,0.2,4.2,0.6L1728.8,419.7z"/>
	</g>
</g>
</svg>
